<svg width="465" height="434" viewBox="0 0 465 434" fill="none" xmlns="http://www.w3.org/2000/svg">
<path d="M193.86 141.252C192.329 149.73 190.759 158.247 189.228 166.725C181.025 173.044 174.274 178.225 169.682 181.679C139.499 204.68 131.766 209.9 121.247 221.675C114.496 229.25 110.1 235.569 107.431 239.416C97.1871 254.252 91.1819 267.323 83.3711 284.553C80.5059 290.873 77.4444 297.977 74.3436 305.748C73.3624 305.513 72.3419 305.238 71.3606 305.003C69.8691 308.182 68.5346 310.733 67.5926 312.421C65.1199 316.935 63.7853 318.858 63.5106 322.155C63.2751 324.863 63.9816 326.355 64.1779 326.786C64.5311 327.493 65.1199 328.435 67.7496 330.476C69.0449 331.496 70.8896 332.831 73.2838 334.205C71.8708 338.718 70.4579 343.232 69.0449 347.785C67.3964 348.256 65.6301 348.884 63.7461 349.669C60.9986 350.847 58.6829 352.142 56.7204 353.359C55.1111 354.144 52.6776 355.4 49.8909 357.244C47.5751 358.775 46.2013 359.874 45.4163 360.502C42.0801 362.975 39.2541 363.25 29.8734 365.251C18.9226 367.606 15.7826 368.784 13.2706 369.922C8.20735 372.199 6.40185 373.965 5.53835 374.907C2.00585 378.793 1.22085 383.463 0.985352 385.818C3.02635 386.132 6.32335 386.603 10.4054 386.917C18.0199 387.467 23.7111 386.996 26.1838 386.839C40.4708 385.858 64.9236 385.818 70.9681 385.858C73.0483 385.858 78.5433 385.936 84.7841 383.346C86.8643 382.482 88.4736 381.579 89.4941 380.951C90.7501 378.165 91.0641 375.849 91.1426 374.318C91.4174 369.687 89.6511 368.156 90.7501 364.466C91.3388 362.504 91.9276 362.582 93.0266 359.325C94.0078 356.381 94.0079 354.85 93.6546 353.555C93.4191 352.731 93.0658 351.396 92.0061 350.886C90.5931 350.179 88.2774 351.2 86.4719 353.555C88.5129 348.766 90.5931 343.939 92.6341 339.15C94.2433 339.189 96.5591 339.111 99.2673 338.404C101.505 337.776 104.291 337.031 106.529 334.793C107.824 333.498 108.452 332.164 110.728 324.588C111.867 320.781 112.416 318.858 112.769 317.406C115.556 306.023 127.998 286.594 135.966 274.702C139.263 269.795 143.698 263.319 149.115 255.822C150.018 255.312 150.881 254.802 151.784 254.252C155.434 250.838 161.243 245.421 168.504 238.945C176.511 231.841 181.535 227.602 196.686 214.649C217.606 196.712 219.019 195.338 221.335 192.394C232.089 178.618 234.915 166.372 235.74 162.368C237.545 153.38 239.429 143.803 234.523 138.112C228.007 130.615 211.248 131.439 193.86 141.252Z" fill="white"/>
<path d="M193.31 141.094C191.465 149.533 189.895 158.011 188.678 166.568C188.561 167.313 189.699 167.627 189.817 166.882C191.073 158.325 192.603 149.847 194.448 141.408C194.605 140.663 193.467 140.349 193.31 141.094Z" fill="#102067"/>
<path d="M188.09 167.314C177.257 175.478 166.424 183.642 155.552 191.806C145.622 199.303 135.417 206.604 126.507 215.356C110.415 231.096 98.7574 250.681 89.0627 270.856C83.5677 282.278 78.6614 293.935 73.7944 305.631C73.5197 306.338 74.6579 306.652 74.9327 305.945C83.5677 285.339 92.2812 264.576 104.174 245.579C110.061 236.159 116.695 227.249 124.388 219.242C132.944 210.293 142.874 202.914 152.726 195.457C164.697 186.429 176.708 177.402 188.679 168.374C189.307 167.864 188.718 166.843 188.09 167.314Z" fill="#102067"/>
<path d="M112.612 319.525C117.636 308.064 123.288 296.917 129.607 286.123C132.747 280.785 136.044 275.526 139.459 270.384C141.186 267.793 142.952 265.281 144.718 262.73C145.621 261.474 146.524 260.218 147.427 258.962C147.858 258.413 148.212 257.745 148.683 257.235C149.428 256.45 149.507 256.45 150.606 256.568C150.802 256.607 151.038 256.45 151.116 256.293C154.688 250.131 160.811 245.97 166.227 241.535C172.154 236.668 178.042 231.723 183.851 226.699C195.547 216.572 207.008 206.171 218.194 195.495C218.744 194.985 217.92 194.121 217.37 194.671C205.831 205.7 193.977 216.454 181.888 226.895C175.883 232.076 169.799 237.139 163.676 242.163C160.889 244.44 158.024 246.638 155.434 249.11C154.217 250.288 153.039 251.544 151.98 252.918C151.548 253.467 151.234 254.095 150.802 254.605C150.174 255.39 150.135 255.351 149.075 255.233C148.879 255.194 148.683 255.351 148.565 255.508C133.807 275.133 121.404 296.407 111.591 318.897C111.317 319.603 112.337 320.192 112.612 319.525Z" fill="#102067"/>
<path d="M72.9702 305.905C73.9122 308.535 76.6989 310.026 78.8184 311.557C81.6837 313.598 84.6667 315.521 87.9637 316.816C91.4177 318.19 95.1072 318.583 98.7967 318.936C103.036 319.368 107.275 319.799 111.474 320.192C112.22 320.27 112.22 319.093 111.474 319.014C107.903 318.661 104.292 318.308 100.72 317.955C97.1874 317.601 93.6157 317.366 90.2009 316.345C87.1394 315.403 84.3134 313.833 81.6837 312.067C80.3492 311.204 79.0932 310.262 77.7979 309.32C76.3849 308.26 74.7364 307.279 74.1084 305.552C73.8337 304.884 72.6954 305.198 72.9702 305.905Z" fill="#102067"/>
<path d="M73.8334 305.551C73.1269 303.707 71.0859 304.099 70.1047 305.512C69.1627 306.847 68.6524 308.652 67.9852 310.144C67.1217 312.145 66.2582 314.147 65.3947 316.149C64.1779 318.936 61.9799 322.429 62.9612 325.608C63.7854 328.199 66.3367 330.24 68.4169 331.849C73.6372 335.892 79.9564 338.247 86.4327 339.189C92.1239 340.013 98.9927 340.248 104.213 337.344C111.199 333.458 109.629 325.373 112.966 319.211C113.319 318.543 112.298 317.955 111.945 318.622C108.884 324.274 110.218 332.281 104.134 336.049C98.5609 339.503 90.4754 338.875 84.3132 337.619C77.6799 336.284 71.2037 333.301 66.3759 328.473C64.6489 326.746 63.5107 324.902 64.1779 322.351C64.6882 320.31 65.7872 318.347 66.6114 316.384C67.4357 314.5 68.2599 312.616 69.0449 310.732C69.4374 309.79 69.8692 308.848 70.2617 307.906C70.3794 307.632 72.0279 304.021 72.7344 305.866C72.9699 306.572 74.1082 306.258 73.8334 305.551Z" fill="#102067"/>
<path d="M72.067 335.422C70.8502 339.504 69.6335 343.586 68.456 347.668C68.2597 348.413 69.3587 348.688 69.5942 347.982C70.811 343.9 72.0277 339.818 73.2052 335.736C73.4015 335.029 72.2632 334.715 72.067 335.422Z" fill="#102067"/>
<path d="M92.3983 338.678C90.3966 342.957 88.4341 347.196 86.4323 351.474C86.1183 352.141 87.1388 352.769 87.4528 352.063C89.4546 347.784 91.4171 343.545 93.4188 339.267C93.7328 338.6 92.7123 338.011 92.3983 338.678Z" fill="#102067"/>
<path d="M59.8206 353.593C62.0578 351.121 65.4726 348.491 69.0051 349.825C71.2031 350.65 72.6946 352.691 74.3823 354.221C75.6383 355.399 77.0906 356.419 78.8176 356.655C81.1333 356.969 83.2528 355.87 85.1761 354.692C87.7273 353.122 93.4186 349.433 93.3008 355.399C93.2616 358.382 91.2991 361.051 90.6711 363.916C89.3758 369.804 92.2018 376.83 88.0806 381.971C87.6096 382.56 88.4338 383.384 88.9048 382.795C92.2018 378.674 91.4561 373.493 91.4168 368.548C91.3776 365.368 92.1626 362.739 93.3008 359.834C94.1643 357.675 94.9493 355.163 94.0073 352.887C92.0448 348.295 86.6676 352.416 84.0378 353.986C81.6043 355.438 79.0531 356.184 76.5018 354.496C74.6571 353.24 73.3226 351.395 71.5563 350.022C67.1603 346.607 62.2541 349.08 58.9178 352.769C58.4861 353.319 59.3103 354.182 59.8206 353.593Z" fill="#102067"/>
<path d="M59.2715 352.613C53.698 352.456 49.93 357.009 45.5732 359.757C42.4725 361.719 38.9792 362.661 35.4467 363.486C31.9535 364.271 28.4602 365.056 25.0062 365.801C14.5657 368.156 0.396484 372.827 0.396484 385.897C0.396484 386.643 1.57398 386.643 1.57398 385.897C1.61323 372.16 17.8235 368.627 28.3032 366.272C34.1122 364.977 40.5492 364.192 45.7302 361.052C50.087 358.422 53.8157 353.595 59.3107 353.752C60.0565 353.791 60.0565 352.613 59.2715 352.613Z" fill="#102067"/>
<path d="M1.14238 386.29C4.08613 387.507 7.22613 387.585 10.3661 387.585C14.2911 387.585 18.2161 387.546 22.1411 387.507C29.9911 387.467 37.8411 387.428 45.6519 387.389C60.0174 387.31 74.6576 387.467 88.4344 382.914C89.1409 382.679 88.8269 381.541 88.1204 381.776C74.4221 386.29 59.8996 386.133 45.6519 386.211C38.0766 386.251 30.5014 386.29 22.9261 386.329C19.2759 386.368 15.5864 386.368 11.9361 386.408C8.36438 386.447 4.79263 386.565 1.45638 385.191C0.749876 384.877 0.435881 386.015 1.14238 386.29Z" fill="#102067"/>
<path d="M204.496 145.059C204.025 149.652 203.594 154.244 203.123 158.836C202.848 161.544 202.652 165.155 205.949 165.98C206.695 166.176 207.008 165.038 206.263 164.841C202.73 163.939 204.457 157.58 204.693 155.029C205.007 151.693 205.36 148.396 205.674 145.059C205.713 144.274 204.536 144.274 204.496 145.059Z" fill="#102067"/>
<path d="M199.355 144.667C198.649 149.024 197.746 153.341 196.647 157.62C195.705 161.309 194.096 168.06 188.836 166.804C188.09 166.647 187.776 167.785 188.522 167.942C192.683 168.924 195.469 165.391 196.686 161.859C198.531 156.442 199.551 150.594 200.493 144.942C200.611 144.235 199.473 143.921 199.355 144.667Z" fill="#102067"/>
<path d="M28.6565 366.39C32.8563 367.646 36.585 369.844 39.6858 372.984C40.039 373.338 40.7063 373.063 40.7063 372.553C40.667 369.295 39.6858 366.233 37.7625 363.564C37.527 363.839 37.3308 364.153 37.0953 364.428C41.1773 365.095 44.9453 366.744 48.1245 369.334C48.5955 369.727 49.2235 369.373 49.1058 368.745C48.5563 365.802 47.6535 362.976 46.3975 360.228C46.1228 360.503 45.848 360.778 45.5733 361.052C48.831 363.093 51.7355 365.527 54.2868 368.431C54.64 368.863 55.2288 368.471 55.3073 368C55.7783 363.447 55.0718 358.972 53.3055 354.772C52.9915 354.969 52.6383 355.165 52.3243 355.361C56.1315 358.54 59.664 361.994 62.9218 365.723C63.2358 366.116 63.9423 365.802 63.9423 365.291C63.6283 360.621 62.176 356.225 59.5855 352.3C59.1538 351.672 58.1333 352.26 58.565 352.888C61.0378 356.617 62.49 360.817 62.7648 365.291C63.118 365.134 63.432 365.017 63.7853 364.86C60.5275 361.131 56.995 357.677 53.1878 354.498C52.7953 354.184 51.9318 354.458 52.2065 355.086C53.9335 359.208 54.6008 363.564 54.169 368C54.5223 367.843 54.8363 367.725 55.1895 367.568C52.5598 364.624 49.5768 362.112 46.2405 360.032C45.691 359.679 45.22 360.346 45.4163 360.856C46.633 363.486 47.4573 366.233 48.0068 369.099C48.3208 368.902 48.674 368.706 48.988 368.51C45.6125 365.762 41.7268 363.996 37.4093 363.29C36.9775 363.211 36.428 363.682 36.742 364.153C38.5475 366.665 39.4503 369.452 39.4895 372.513C39.8428 372.356 40.1568 372.239 40.51 372.082C37.2915 368.824 33.3665 366.469 28.9313 365.174C28.264 365.056 27.95 366.194 28.6565 366.39Z" fill="#102067"/>
<path d="M59.3891 352.534C58.2901 351.199 57.4266 349.747 56.7201 348.137C56.2883 347.078 54.9538 343.859 55.8566 342.76C57.5836 340.719 58.1331 345.94 58.2116 346.411C58.5256 348.177 58.8003 349.982 59.0751 351.749C59.1536 352.337 60.0956 352.259 60.2133 351.749C60.5666 350.375 61.1161 349.04 62.1366 348.02C62.6468 347.47 63.6673 346.646 64.5308 346.764C66.7288 347.117 66.1008 349.354 65.1981 350.257C63.5496 351.827 60.2526 351.827 58.1723 352.18C57.4266 352.298 57.7406 353.436 58.4863 353.319C60.7628 352.926 63.6673 352.848 65.5906 351.435C66.8466 350.493 67.6708 348.726 67.0036 347.156C66.3756 345.704 64.6486 345.312 63.2356 345.822C60.9591 346.646 59.6638 349.276 59.1143 351.435C59.5068 351.435 59.8601 351.435 60.2526 351.435C60.0171 349.943 59.3498 338.207 55.6996 340.798C54.0511 341.936 54.5613 345.037 54.9931 346.646C55.6603 349.119 56.9948 351.356 58.6041 353.358C59.0358 353.947 59.8601 353.122 59.3891 352.534Z" fill="#102067"/>
<path d="M4.4388 377.812C8.24605 376.713 10.8758 381.384 12.8383 383.857C13.3093 384.446 14.1335 383.621 13.6625 383.033C11.3468 380.128 8.5208 375.379 4.1248 376.674C3.4183 376.91 3.7323 378.048 4.4388 377.812Z" fill="#102067"/>
<path d="M70.8898 383.935C73.8728 381.305 75.5213 377.576 78.3081 374.75C81.4088 371.571 85.7656 370.197 90.0438 369.491C90.7896 369.373 90.4756 368.235 89.7298 368.352C85.6478 369.02 81.5658 370.276 78.3866 373.023C75.0503 375.888 73.3626 380.167 70.0656 383.071C69.4768 383.581 70.3403 384.406 70.8898 383.935Z" fill="#102067"/>
<path d="M66.3757 351.003C69.712 353.515 69.9867 358.382 73.637 360.659C75.4032 361.758 77.5619 362.072 79.6029 361.876C81.3299 361.679 83.9205 361.208 85.1372 359.835C85.6475 359.285 84.8232 358.422 84.313 359.01C82.9785 360.541 79.4067 360.934 77.562 360.737C75.0892 360.502 73.1267 359.167 71.8315 357.087C70.2615 354.614 69.4372 351.828 67.0037 350.022C66.3757 349.512 65.787 350.532 66.3757 351.003Z" fill="#102067"/>
<path d="M15.9783 384.013C24.1031 383.267 32.2278 383.463 40.3918 383.856C44.4738 384.052 48.5558 384.287 52.6378 384.405C54.6788 384.484 56.7198 384.523 58.7608 384.523C60.0561 384.523 61.6261 384.837 62.7251 384.013C63.3138 383.581 62.7251 382.56 62.1363 382.992C61.3121 383.62 59.7421 383.345 58.7608 383.345C57.7403 383.345 56.7198 383.306 55.6993 383.306C53.9331 383.267 52.1276 383.188 50.3613 383.149C46.5541 382.992 42.7076 382.796 38.9003 382.6C31.2858 382.246 23.6321 382.089 16.0176 382.835C15.2326 382.914 15.2326 384.091 15.9783 384.013Z" fill="#102067"/>
<path d="M11.2298 380.599C13.8595 381.266 16.4892 381.934 19.119 382.64C19.6685 382.797 19.904 381.934 19.3545 381.777C16.7247 381.109 14.095 380.442 11.4652 379.736C10.9157 379.618 10.6803 380.481 11.2298 380.599Z" fill="#102067"/>
<path d="M5.42018 375.418C12.7207 378.204 20.0997 380.756 27.5572 383.071C28.1067 383.228 28.3422 382.404 27.7927 382.208C20.3352 379.853 12.9562 377.302 5.65568 374.554C5.10618 374.358 4.87068 375.221 5.42018 375.418Z" fill="#102067"/>
<path d="M8.67799 372.905C17.2345 376.438 25.8302 379.813 34.5045 383.032C35.054 383.228 35.2502 382.364 34.74 382.168C26.0657 378.95 17.47 375.574 8.91348 372.042C8.36398 371.845 8.12849 372.67 8.67799 372.905Z" fill="#102067"/>
<path d="M13.1137 370.433C24.614 375.026 36.1535 379.657 47.6537 384.249C48.164 384.446 48.3995 383.621 47.8893 383.386C36.389 378.794 24.8495 374.162 13.3492 369.57C12.839 369.374 12.6035 370.237 13.1137 370.433Z" fill="#102067"/>
<path d="M19.0012 368.784C30.5407 374.476 42.355 379.696 54.3262 384.445C54.8365 384.641 55.072 383.817 54.5617 383.582C42.6297 378.872 30.9332 373.691 19.433 367.999C18.9227 367.803 18.491 368.549 19.0012 368.784Z" fill="#102067"/>
<path d="M25.3596 367.135C36.9776 373.101 48.6741 378.871 60.4884 384.523C60.9986 384.759 61.4304 384.013 60.9201 383.777C49.1451 378.165 37.4094 372.356 25.7914 366.39C25.2811 366.115 24.8494 366.9 25.3596 367.135Z" fill="#102067"/>
<path d="M40.5102 369.884C50.0479 375.104 59.8212 379.853 69.7907 384.171C70.3009 384.406 70.7719 383.621 70.2224 383.425C60.2529 379.107 50.4797 374.319 40.9419 369.138C40.4709 368.863 40.0392 369.609 40.5102 369.884Z" fill="#102067"/>
<path d="M49.6555 370.001C56.9953 374.004 64.4135 377.851 71.9103 381.54C72.4205 381.776 72.8523 381.03 72.342 380.795C64.8453 377.105 57.427 373.259 50.0873 369.255C49.577 368.98 49.1453 369.726 49.6555 370.001Z" fill="#102067"/>
<path d="M55.5031 368.274C61.8224 371.807 68.2594 375.104 74.8141 378.126C75.3244 378.362 75.7561 377.616 75.2459 377.38C68.6911 374.319 62.2541 371.061 55.9349 367.529C55.4639 367.254 54.9929 368 55.5031 368.274Z" fill="#102067"/>
<path d="M55.2288 363.799C62.2153 367.685 69.241 371.61 76.2275 375.496C76.7378 375.77 77.1695 375.025 76.6593 374.75C69.6728 370.864 62.647 366.939 55.6605 363.053C55.1503 362.739 54.7185 363.524 55.2288 363.799Z" fill="#102067"/>
<path d="M64.4133 364.192C69.3588 367.018 74.3436 369.804 79.2891 372.63C79.7993 372.905 80.2311 372.159 79.7208 371.885C74.7753 369.059 69.7906 366.272 64.8451 363.446C64.3348 363.132 63.9031 363.917 64.4133 364.192Z" fill="#102067"/>
<path d="M61.0382 355.989C67.9462 361.562 75.2467 366.547 82.979 370.865C83.4892 371.139 83.921 370.394 83.4107 370.119C75.757 365.841 68.4565 360.895 61.627 355.4C61.2345 355.008 60.6065 355.636 61.0382 355.989Z" fill="#102067"/>
<path d="M77.7973 362.307C81.6438 364.544 85.4903 366.742 89.2975 368.979C89.8078 369.254 90.2395 368.508 89.7293 368.234C85.8828 365.996 82.0363 363.798 78.229 361.561C77.758 361.247 77.3263 362.032 77.7973 362.307Z" fill="#102067"/>
<path d="M83.8029 360.934C85.8047 362.033 87.8457 363.093 89.9259 364.074C90.4362 364.31 90.8679 363.564 90.3577 363.329C88.2774 362.347 86.2364 361.288 84.2347 360.189C83.7637 359.914 83.2927 360.66 83.8029 360.934Z" fill="#102067"/>
<path d="M62.0978 351.239C64.806 353.633 67.6713 355.87 70.6936 357.872C71.1646 358.186 71.5963 357.44 71.1253 357.126C68.1815 355.164 65.3555 353.005 62.6865 350.611C62.294 350.218 61.666 350.846 62.0978 351.239Z" fill="#102067"/>
<path d="M216.115 145.53C215.212 151.888 214.074 158.6 212.622 165.626C211.366 171.749 209.953 177.519 208.461 182.974C204.811 187.802 200.376 194.004 195.666 201.422C190.485 209.586 184.008 220.733 177.768 234.431C172.587 245.774 166.895 260.258 162.264 277.528C161.95 281.688 161.597 287.536 161.597 294.523C161.597 305.552 162.46 303.943 164.187 327.14C164.619 332.949 165.011 339.072 168.544 346.137C169.604 348.256 170.663 349.944 171.448 351.004C172.979 351.592 175.059 352.22 177.532 352.495C180.672 352.848 183.302 352.574 185.147 352.181C187.227 358.029 189.268 363.878 191.348 369.687C189.464 370.197 188.404 371.021 187.776 371.688C185.657 373.886 186.52 376.163 184.401 380.127C183.263 382.207 182.949 381.776 181.732 383.934C180.083 386.878 179.926 389.037 179.298 391.981C178.121 397.476 176.041 401.518 175.216 403.167C172.587 408.387 171.331 408.191 169.8 412.587C168.74 415.648 169.329 415.805 167.955 419.887C166.581 424.009 165.561 425.068 165.993 427.07C166.66 430.132 169.8 431.702 170.153 431.859C173.215 433.311 176.276 432.33 178.553 431.584C181.222 430.681 183.891 429.268 190.406 423.263C195.352 418.749 198.884 414.903 200.454 413.215C202.534 410.938 204.889 408.073 209.678 402.343C215.251 395.631 217.999 392.098 219.137 390.646C221.021 388.213 222.591 386.132 223.69 384.68C223.141 382.639 222.356 381.187 221.767 380.245C220.589 378.4 219.176 377.105 217.449 375.496C214.977 373.219 214.663 373.415 214.152 372.395C213.289 370.707 214.113 369.804 213.956 366.036C213.838 363.328 213.721 361.562 212.504 360.698C211.169 359.756 209.246 360.384 208.383 360.698C206.656 355.753 204.968 350.847 203.241 345.901C204.104 345.273 205.321 344.213 206.42 342.722C206.773 342.251 208.54 339.778 209.05 336.834C209.639 333.498 208.304 330.908 207.127 328.003C205.871 324.942 207.362 327.807 202.809 311.361C201.828 307.868 200.533 303.236 198.884 297.781C198.688 297.153 198.492 296.132 198.492 294.915C198.492 293.188 198.884 292.443 198.492 291.422C198.295 290.833 197.785 290.048 196.451 289.381C198.178 286.437 200.807 282.12 204.222 277.017C210.227 268.108 213.956 263.829 220.393 255.705C232.129 240.79 238.095 233.097 243.865 221.91C248.653 212.569 250.38 206.603 251.283 202.482C253.128 194.043 253.049 187.017 252.814 183.092C252.5 177.833 251.675 174.3 247.476 159.267C245.67 152.752 243.511 145.216 241.078 136.816C232.757 139.76 224.436 142.625 216.115 145.53Z" fill="white"/>
<path d="M241.627 140.781C244.767 152.006 248.417 163.192 250.811 174.614C253.127 185.486 252.695 196.241 249.437 206.878C243.197 227.209 229.224 243.655 216.232 260.022C208.931 269.207 201.866 278.587 196.332 288.949C195.979 289.617 196.999 290.205 197.353 289.538C207.518 270.423 222.944 254.998 235.19 237.336C246.925 220.419 255.992 200.441 252.891 179.403C251.949 173.005 250.144 166.764 248.378 160.563C246.494 153.851 244.61 147.178 242.765 140.467C242.569 139.76 241.43 140.074 241.627 140.781Z" fill="#102067"/>
<path d="M207.951 182.7C191.348 204.68 178.042 229.133 168.701 255.077C166.032 262.417 163.716 269.835 161.714 277.371C161.518 278.117 162.656 278.431 162.852 277.685C169.957 251.152 181.064 225.757 195.705 202.521C199.865 195.927 204.3 189.53 209.01 183.289C209.403 182.661 208.382 182.072 207.951 182.7Z" fill="#102067"/>
<path d="M196.489 290.637C199.041 290.441 197.588 294.798 197.706 296.172C197.824 297.349 198.295 298.487 198.648 299.626C199.59 302.766 200.532 305.945 201.396 309.085C203.123 315.443 204.653 321.841 205.988 328.278C206.145 329.024 207.283 328.71 207.126 327.964C205.517 320.271 203.672 312.657 201.553 305.121C200.493 301.431 198.609 297.506 199.158 293.66C199.433 291.815 198.923 289.264 196.568 289.46C195.744 289.538 195.744 290.716 196.489 290.637Z" fill="#102067"/>
<path d="M161.832 276.782C160.615 290.048 160.693 303.433 162.146 316.699C162.852 323.018 163.833 329.259 165.089 335.461C166.228 340.995 167.248 346.922 170.977 351.396C171.448 351.985 172.311 351.161 171.801 350.572C167.955 345.94 167.052 339.386 165.914 333.694C164.658 327.336 163.716 320.899 163.088 314.462C161.871 301.941 161.871 289.342 163.009 276.782C163.088 276.036 161.91 276.036 161.832 276.782Z" fill="#102067"/>
<path d="M170.977 350.847C171.88 352.456 173.567 352.888 175.294 353.045C177.846 353.241 180.475 353.163 183.027 352.967C188.011 352.613 192.996 351.593 197.549 349.552C201.67 347.746 206.616 344.803 208.657 340.603C210.973 335.854 208.618 330.476 206.537 326.12C206.223 325.452 205.203 326.041 205.517 326.708C207.519 330.908 209.991 336.403 207.205 340.799C204.928 344.371 200.728 346.883 196.96 348.531C193.075 350.258 188.836 351.2 184.597 351.632C182.516 351.868 180.397 351.946 178.317 351.946C176.315 351.946 173.136 352.26 171.997 350.258C171.605 349.591 170.584 350.18 170.977 350.847Z" fill="#102067"/>
<path d="M165.639 334.088C172.901 336.678 180.829 336.207 187.737 332.792C187.462 332.714 187.188 332.635 186.913 332.596C187.933 334.402 189.857 339.7 192.84 338.444C195.509 337.345 193.428 331.85 192.8 330.084C192.015 327.965 190.249 324.118 187.384 324.432C184.362 324.785 186.246 331.065 186.756 332.675C186.991 333.381 188.13 333.067 187.894 332.361C187.619 331.497 187.345 330.594 187.227 329.692C187.148 329.221 186.677 326.826 187.07 326.395C187.659 325.727 188.875 326.081 189.425 326.591C189.778 326.944 190.131 327.376 190.367 327.768C190.956 328.671 191.387 329.731 191.741 330.751C192.055 331.615 192.29 332.518 192.486 333.42C192.604 333.97 192.683 334.519 192.761 335.069C192.918 336.207 193.114 336.129 191.858 336.56C190.602 336.992 190.72 336.835 190.092 335.854C189.857 335.501 189.66 335.108 189.425 334.716C188.915 333.813 188.404 332.91 187.894 332.047C187.737 331.772 187.384 331.693 187.07 331.85C180.437 335.108 172.822 335.54 165.875 333.028C165.208 332.714 164.933 333.852 165.639 334.088Z" fill="#102067"/>
<path d="M192.8 330.986C197.274 329.769 201.199 327.414 204.379 324.078C204.889 323.528 204.065 322.704 203.554 323.253C200.493 326.472 196.764 328.709 192.486 329.887C191.74 330.083 192.054 331.182 192.8 330.986Z" fill="#102067"/>
<path d="M184.557 352.378C186.637 358.226 188.678 364.074 190.759 369.883C190.994 370.59 192.132 370.276 191.897 369.569C189.817 363.721 187.776 357.873 185.695 352.064C185.421 351.357 184.282 351.632 184.557 352.378Z" fill="#102067"/>
<path d="M203.437 347.117C205.007 351.827 206.577 356.498 208.108 361.208C208.343 361.915 209.482 361.601 209.246 360.894C207.676 356.184 206.106 351.513 204.575 346.803C204.34 346.058 203.202 346.372 203.437 347.117Z" fill="#102067"/>
<path d="M184.95 380.165C185.343 376.711 186.049 371.805 190.053 370.706C193.075 369.882 195.783 372.315 198.531 373.14C200.297 373.65 202.495 373.728 203.673 372.08C204.85 370.431 204.34 368.194 204.458 366.349C204.575 364.544 205.36 363.327 206.773 362.267C208.697 360.815 211.169 360.148 212.19 362.935C213.093 365.407 212.582 368.116 213.25 370.628C213.956 373.297 216.036 374.199 217.92 375.966C220.393 378.242 221.806 381.382 222.002 384.718C222.042 385.464 223.219 385.464 223.18 384.718C223.023 382.363 222.395 380.087 221.178 378.085C220.589 377.104 219.844 376.162 218.98 375.338C217.96 374.356 216.586 373.689 215.644 372.629C212.622 369.372 215.722 362.189 211.248 359.952C209.403 359.01 207.401 360.305 205.949 361.443C204.34 362.699 203.437 364.073 203.28 366.114C203.045 368.94 203.79 373.179 199.355 372.198C196.882 371.648 194.763 369.921 192.251 369.529C186.049 368.547 184.244 375.534 183.694 380.205C183.694 380.911 184.872 380.911 184.95 380.165Z" fill="#102067"/>
<path d="M183.969 379.93C178.513 385.111 179.337 393.197 176.511 399.634C174.745 403.637 171.762 407.013 169.878 410.977C167.916 415.098 166.581 419.455 165.875 423.929C165.757 424.675 166.895 424.989 167.013 424.243C167.759 419.73 169.054 415.373 171.056 411.252C172.94 407.405 175.805 404.108 177.532 400.222C180.358 393.942 179.534 385.778 184.832 380.754C185.343 380.244 184.518 379.42 183.969 379.93Z" fill="#102067"/>
<path d="M165.56 423.969C164.265 427.972 167.405 431.897 171.173 432.996C176.472 434.566 181.81 430.916 185.774 427.894C195.351 420.633 203.123 411.37 210.659 402.107C215.212 396.494 219.922 390.96 224.161 385.072C224.592 384.444 223.572 383.855 223.14 384.483C218.901 390.371 214.191 395.905 209.599 401.557C205.478 406.62 201.278 411.684 196.764 416.433C192.211 421.182 187.226 425.931 181.614 429.425C178.748 431.23 175.216 432.8 171.762 431.976C168.465 431.191 165.56 427.776 166.699 424.322C166.934 423.576 165.796 423.262 165.56 423.969Z" fill="#102067"/>
<path d="M224.749 145.217C224.435 150.044 224.161 154.911 223.847 159.739C223.533 164.528 223.022 169.355 223.101 174.144C223.219 180.973 226.712 188.784 234.68 188.195C235.425 188.156 235.425 186.979 234.68 187.018C230.794 187.332 227.693 185.252 225.927 181.837C224.043 178.226 224.2 173.908 224.435 169.944C224.906 161.702 225.456 153.42 225.966 145.177C225.966 144.471 224.789 144.471 224.749 145.217Z" fill="#102067"/>
<path d="M227.851 144.667C226.987 148.592 226.752 152.595 227.262 156.599C227.733 160.21 228.636 163.86 231.305 166.49C236.054 171.2 243.668 170.964 248.339 166.254C248.889 165.705 248.025 164.88 247.515 165.43C242.923 170.061 235.347 169.865 231.265 164.645C229.264 162.054 228.636 158.561 228.322 155.343C228.008 151.849 228.243 148.395 229.028 144.981C229.146 144.235 228.008 143.921 227.851 144.667Z" fill="#102067"/>
<path d="M184.165 381.972C186.873 380.951 189.621 381.069 192.211 382.403C192.25 382.129 192.29 381.854 192.329 381.579C187.266 382.6 182.713 385.033 179.062 388.683C178.67 389.076 179.18 389.586 179.612 389.39C183.223 387.741 187.266 387.977 190.72 389.939C190.759 389.665 190.798 389.39 190.837 389.115C186.127 390.45 181.81 392.726 178.003 395.827C177.61 396.141 178.12 396.73 178.552 396.533C182.085 394.767 186.324 395.748 188.836 398.731C188.914 398.496 188.953 398.221 189.032 397.986C183.733 399.045 178.748 401.165 174.352 404.305C173.881 404.658 174.274 405.286 174.784 405.051C177.806 403.755 181.103 404.069 183.851 405.836C183.89 405.561 183.929 405.286 183.969 405.011C179.573 406.267 175.137 407.563 170.741 408.819C170.192 408.976 170.427 409.839 170.977 409.682C175.373 408.426 179.808 407.131 184.204 405.875C184.597 405.757 184.636 405.286 184.322 405.051C181.3 403.127 177.689 402.853 174.392 404.266C174.549 404.501 174.706 404.776 174.823 405.011C179.18 401.911 184.047 399.791 189.307 398.771C189.66 398.692 189.699 398.26 189.503 398.025C186.716 394.689 182.006 393.747 178.16 395.67C178.356 395.905 178.513 396.141 178.709 396.376C182.399 393.354 186.598 391.195 191.151 389.9C191.505 389.782 191.583 389.272 191.269 389.076C187.54 386.917 183.184 386.76 179.259 388.526C179.455 388.762 179.612 388.997 179.808 389.233C183.38 385.7 187.776 383.345 192.682 382.364C193.035 382.286 193.114 381.736 192.8 381.54C190.052 380.127 186.991 379.931 184.086 381.03C183.419 381.304 183.615 382.168 184.165 381.972Z" fill="#102067"/>
<path d="M183.616 380.481C182.517 380.481 181.496 380.246 180.554 379.657C180.083 379.382 179.691 379.029 179.337 378.636C177.964 377.263 178.513 376.438 181.025 376.242C182.791 376.831 184.244 379.304 185.068 380.795C185.264 381.148 185.774 381.031 185.892 380.677C186.324 379.304 187.266 378.44 188.522 377.773C188.914 377.537 189.739 377.066 190.249 377.066C190.563 376.87 190.798 377.027 190.916 377.537C191.505 377.969 191.466 378.244 190.759 378.44C189.268 379.932 186.088 380.56 184.087 380.952C183.537 381.07 183.773 381.933 184.322 381.816C185.696 381.541 194.841 379.147 192.251 376.556C191.269 375.575 189.621 376.321 188.6 376.792C186.952 377.577 185.617 378.676 185.068 380.481C185.343 380.442 185.617 380.403 185.892 380.363C184.872 378.479 180.672 372.67 178.121 375.81C177.218 376.909 177.964 378.362 178.788 379.264C180.044 380.677 181.81 381.345 183.694 381.345C184.165 381.384 184.165 380.481 183.616 380.481Z" fill="#102067"/>
<path d="M166.817 425.225C169.525 422.085 173.529 420.711 177.611 420.907C178.71 420.947 179.809 421.104 180.908 421.339C181.575 421.496 182.36 421.849 183.027 421.889C183.577 421.928 184.008 421.81 184.008 421.182C184.008 420.947 183.812 420.75 183.577 420.75C183.537 420.75 183.459 420.75 183.42 420.75C183.223 420.75 183.066 420.907 182.988 421.064C182.988 421.104 182.949 421.143 182.949 421.221C182.792 421.771 183.616 422.006 183.812 421.457C183.734 421.535 183.655 421.575 183.616 421.653C183.459 421.496 183.302 421.339 183.184 421.221C183.145 420.476 179.063 420.122 178.396 420.083C176.786 419.965 175.138 420.044 173.568 420.358C170.742 420.947 168.191 422.438 166.307 424.636C165.796 425.029 166.424 425.657 166.817 425.225Z" fill="#102067"/>
<path d="M217.606 376.005C215.8 377.771 214.426 379.93 213.759 382.364C212.896 385.386 213.681 388.447 213.013 391.47C212.896 392.019 213.72 392.255 213.877 391.705C214.505 389.075 213.877 386.406 214.348 383.777C214.858 381.029 216.271 378.556 218.273 376.633C218.626 376.241 218.037 375.613 217.606 376.005Z" fill="#102067"/>
<path d="M187.736 372.199C190.876 372.395 193.31 373.808 195.429 376.085C196.842 377.576 198.216 378.754 200.336 378.989C204.889 379.46 208.343 376.085 211.208 373.062C211.6 372.67 210.972 372.042 210.58 372.434C207.401 375.771 202.063 380.677 197.431 376.791C195.822 375.457 194.723 373.808 192.878 372.748C191.308 371.846 189.581 371.414 187.736 371.296C187.187 371.257 187.187 372.16 187.736 372.199Z" fill="#102067"/>
<path d="M188.601 420.476C195.862 413.607 202.495 406.15 208.54 398.221C208.893 397.75 208.108 397.318 207.794 397.789C201.828 405.679 195.195 413.058 188.012 419.887C187.58 420.24 188.208 420.868 188.601 420.476Z" fill="#102067"/>
<path d="M167.601 420.28C168.465 420.986 169.367 421.497 170.427 421.85C170.977 422.046 171.212 421.183 170.663 420.986C169.799 420.672 168.975 420.241 168.229 419.613C167.797 419.299 167.169 419.927 167.601 420.28Z" fill="#102067"/>
<path d="M167.876 417.925C169.368 418.945 170.938 419.887 172.547 420.712C173.057 420.986 173.489 420.201 172.979 419.966C171.37 419.142 169.8 418.2 168.308 417.179C167.837 416.865 167.405 417.611 167.876 417.925Z" fill="#102067"/>
<path d="M168.582 415.334C171.408 417.14 174.195 418.906 177.021 420.712C177.492 421.026 177.963 420.241 177.453 419.966C174.627 418.16 171.84 416.394 169.014 414.589C168.543 414.275 168.111 415.06 168.582 415.334Z" fill="#102067"/>
<path d="M169.917 412.116C174.352 415.139 178.552 418.396 182.555 421.929C182.987 422.321 183.615 421.693 183.183 421.301C179.101 417.729 174.823 414.393 170.349 411.371C169.917 411.057 169.446 411.802 169.917 412.116Z" fill="#102067"/>
<path d="M171.527 409.329C176.983 413.019 182.36 416.865 187.541 420.869C187.973 421.222 188.601 420.594 188.169 420.241C182.909 416.159 177.493 412.273 171.959 408.544C171.488 408.269 171.056 409.015 171.527 409.329Z" fill="#102067"/>
<path d="M176.158 408.113C180.554 411.331 184.832 414.628 189.071 418.082C189.503 418.435 190.131 417.807 189.699 417.454C185.421 414 181.064 410.625 176.629 407.367C176.158 407.014 175.687 407.799 176.158 408.113Z" fill="#102067"/>
<path d="M180.358 407.328C184.048 410.508 187.816 413.608 191.701 416.591C192.133 416.945 192.761 416.317 192.329 415.963C188.483 412.98 184.715 409.88 180.986 406.7C180.554 406.347 179.926 406.936 180.358 407.328Z" fill="#102067"/>
<path d="M183.145 406.032C186.834 408.427 190.406 410.939 193.899 413.568C194.37 413.922 194.802 413.137 194.331 412.823C190.838 410.193 187.266 407.681 183.577 405.287C183.106 404.973 182.674 405.718 183.145 406.032Z" fill="#102067"/>
<path d="M185.774 403.794C189.307 406.62 192.839 409.446 196.45 412.194C196.882 412.547 197.353 411.762 196.882 411.448C193.349 408.74 189.856 405.992 186.402 403.206C185.97 402.813 185.342 403.402 185.774 403.794Z" fill="#102067"/>
<path d="M189.268 402.46C192.329 404.658 195.351 406.896 198.334 409.211C198.766 409.565 199.394 408.937 198.962 408.583C195.94 406.228 192.839 403.952 189.739 401.715C189.268 401.361 188.836 402.146 189.268 402.46Z" fill="#102067"/>
<path d="M190.091 398.535C193.388 401.754 196.882 404.737 200.493 407.563C200.924 407.916 201.552 407.288 201.121 406.935C197.47 404.109 194.016 401.087 190.719 397.907C190.288 397.515 189.66 398.143 190.091 398.535Z" fill="#102067"/>
<path d="M189.699 394.061C193.859 397.829 198.138 401.479 202.534 404.972C202.965 405.326 203.593 404.698 203.162 404.344C198.766 400.812 194.487 397.201 190.327 393.433C189.895 393.079 189.267 393.668 189.699 394.061Z" fill="#102067"/>
<path d="M191.584 391.235C195.783 395.16 200.101 398.928 204.575 402.578C205.007 402.931 205.635 402.303 205.203 401.95C200.768 398.3 196.411 394.532 192.212 390.607C191.78 390.214 191.152 390.842 191.584 391.235Z" fill="#102067"/>
<path d="M192.879 387.703C197.628 391.589 202.299 395.632 206.773 399.792C207.205 400.185 207.833 399.557 207.401 399.164C202.887 394.964 198.256 390.961 193.507 387.075C193.036 386.722 192.408 387.35 192.879 387.703Z" fill="#102067"/>
<path d="M194.723 384.955C199.198 388.683 203.79 392.333 208.5 395.827C208.971 396.18 209.403 395.395 208.932 395.081C204.3 391.627 199.787 388.055 195.351 384.366C194.88 383.973 194.252 384.562 194.723 384.955Z" fill="#102067"/>
<path d="M193.703 379.813C199.08 384.837 204.693 389.665 210.462 394.218C210.894 394.571 211.522 393.943 211.091 393.59C205.282 389.037 199.708 384.209 194.331 379.185C193.899 378.792 193.271 379.42 193.703 379.813Z" fill="#102067"/>
<path d="M195.94 377.379C201.082 382.168 206.184 386.956 211.326 391.705C211.758 392.098 212.386 391.47 211.954 391.077C206.812 386.289 201.71 381.5 196.568 376.751C196.136 376.359 195.508 376.987 195.94 377.379Z" fill="#102067"/>
<path d="M202.769 379.303C205.674 381.697 208.617 384.052 211.522 386.446C211.954 386.799 212.582 386.171 212.15 385.818C209.245 383.424 206.302 381.069 203.397 378.675C202.965 378.321 202.337 378.949 202.769 379.303Z" fill="#102067"/>
<path d="M206.263 377.3C208.343 379.655 210.62 381.814 213.014 383.816C213.446 384.169 214.074 383.541 213.642 383.188C211.208 381.186 208.971 379.027 206.891 376.672C206.498 376.241 205.87 376.869 206.263 377.3Z" fill="#102067"/>
<path d="M208.971 375.338C210.659 376.947 212.386 378.557 214.074 380.166C214.506 380.558 215.094 379.93 214.702 379.538C213.014 377.929 211.287 376.319 209.599 374.71C209.168 374.318 208.54 374.946 208.971 375.338Z" fill="#102067"/>
<path d="M211.012 373.691C212.543 375.065 213.917 376.517 215.173 378.165C215.526 378.597 216.272 378.165 215.919 377.734C214.623 376.046 213.21 374.476 211.64 373.102C211.209 372.71 210.581 373.298 211.012 373.691Z" fill="#102067"/>
<path d="M66.3752 111.303C66.2575 114.364 66.179 118.485 66.336 123.392C66.65 134.931 67.9452 143.723 68.8087 149.532C69.633 154.988 70.8105 161.857 72.6552 169.667C74.5 172.69 77.2082 176.929 80.7407 181.796C86.7852 190.077 91.77 195.337 100.13 204.05C109.668 213.981 117.753 222.38 130.078 231.918C133.532 234.587 136.515 236.706 138.595 238.198C143.187 235.136 146.916 232.585 149.428 230.858C158.966 224.264 169.76 216.767 182.241 206.405C184.989 204.129 187.187 202.245 188.482 201.107C179.729 192.864 171.997 185.995 165.835 180.697C158.142 174.063 150.252 167.273 139.262 159.07C132.786 154.242 127.173 150.356 123.052 147.57C120.422 148.198 117.793 148.826 115.202 149.493C108.53 144.626 102.838 140.348 98.4032 136.972C93.4185 133.165 86.9422 128.219 78.6605 121.508C73.5972 117.426 69.4367 113.893 66.3752 111.303Z" fill="white"/>
<path d="M65.2764 111.539C65.5119 122.215 66.2184 132.891 67.4351 143.528C68.0239 148.552 68.6911 153.615 69.5154 158.6C70.2611 163.388 70.9676 168.216 73.3226 172.494C75.5206 176.537 78.5821 180.109 81.4866 183.681C84.5089 187.409 87.6096 191.099 90.7889 194.71C97.1474 201.932 103.82 208.879 110.767 215.512C118.735 223.127 127.095 230.349 135.73 237.178C136.319 237.649 137.143 236.825 136.554 236.354C121.718 224.697 107.823 211.784 95.1456 197.811C88.7479 190.746 82.3501 183.484 76.8159 175.752C73.8721 171.631 72.2629 167.313 71.3994 162.368C70.4574 156.991 69.6724 151.613 69.0051 146.197C67.5921 134.697 66.7679 123.118 66.5324 111.5C66.4539 110.754 65.2764 110.754 65.2764 111.539Z" fill="#102067"/>
<path d="M65.9439 111.735C87.9632 131.713 112.298 149.101 138.36 163.466C138.478 163.113 138.556 162.721 138.674 162.367C137.85 162.367 137.065 162.407 136.241 162.407C135.495 162.407 135.495 163.584 136.241 163.584C137.065 163.584 137.85 163.545 138.674 163.545C139.263 163.545 139.498 162.721 138.988 162.446C113.005 148.12 88.7482 130.81 66.7682 110.911C66.2187 110.4 65.3944 111.225 65.9439 111.735Z" fill="#102067"/>
<path d="M137.221 164.251C135.573 188.9 135.808 213.627 138.006 238.198C138.203 238.002 138.399 237.805 138.595 237.609C137.535 237.688 136.672 237.138 136.397 236.078C136.201 235.333 135.063 235.647 135.259 236.392C135.651 237.962 136.986 238.944 138.595 238.787C138.909 238.747 139.223 238.551 139.184 238.198C136.986 213.588 136.75 188.861 138.399 164.251C138.438 163.466 137.261 163.466 137.221 164.251Z" fill="#102067"/>
<path d="M138.399 238.631C156.179 227.641 173.096 215.238 188.874 201.539C189.463 201.029 188.6 200.205 188.05 200.715C172.311 214.335 155.512 226.699 137.81 237.61C137.143 238.003 137.732 239.023 138.399 238.631Z" fill="#102067"/>
<path d="M124.819 148.552C146.563 165.312 167.797 182.778 188.482 200.872C189.032 201.383 189.895 200.558 189.306 200.048C168.543 181.915 147.23 164.409 125.407 147.571C124.779 147.061 124.23 148.081 124.819 148.552Z" fill="#102067"/>
<path d="M115.909 149.73C118.539 150.044 121.09 149.494 123.327 148.121C123.955 147.728 123.366 146.707 122.738 147.1C120.658 148.395 118.342 148.866 115.909 148.552C115.163 148.435 115.163 149.612 115.909 149.73Z" fill="#102067"/>
<path d="M97.3827 175.163C95.7734 172.455 96.7154 169.079 99.4237 167.509C101.896 166.057 105.115 166.763 105.939 169.707C106.646 172.219 106.567 175.595 104.722 177.596C102.053 180.462 98.5994 177.008 97.3042 174.496C96.9509 173.828 95.9304 174.417 96.2837 175.084C97.7752 177.91 101.425 181.482 104.722 179.166C107.862 176.968 108.294 171.591 106.763 168.333C105.35 165.35 101.504 164.919 98.8742 166.489C95.5772 168.412 94.4782 172.494 96.4014 175.752C96.7547 176.419 97.7752 175.83 97.3827 175.163Z" fill="#102067"/>
<path d="M134.239 161.622C137.104 162.485 136.476 166.646 136.515 168.962C136.554 171.277 136.594 173.632 136.633 175.948C136.633 176.694 137.81 176.694 137.81 175.948C137.732 172.455 137.81 168.922 137.614 165.429C137.496 163.27 136.79 161.19 134.513 160.523C133.807 160.248 133.493 161.386 134.239 161.622Z" fill="#102067"/>
<path d="M131.648 159.424C135.377 161.975 137.34 166.489 136.594 170.963C136.476 171.709 137.614 172.023 137.732 171.277C138.556 166.253 136.476 161.268 132.237 158.403C131.609 157.971 131.02 158.992 131.648 159.424Z" fill="#102067"/>
<path d="M135.73 162.839C136.672 163.231 137.34 162.878 137.654 164.134C137.811 164.841 137.536 165.94 137.497 166.646C137.379 168.452 137.261 170.218 137.143 172.023C137.104 172.769 138.282 172.769 138.321 172.023C138.478 169.394 139.027 166.489 138.831 163.859C138.674 162.015 137.457 162.289 136.044 161.701C135.338 161.426 135.024 162.564 135.73 162.839Z" fill="#102067"/>
<path d="M136.947 172.14C147.191 182.581 158.338 192.079 170.27 200.518C170.898 200.95 171.487 199.929 170.859 199.497C159.005 191.098 147.937 181.678 137.771 171.316C137.261 170.766 136.397 171.591 136.947 172.14Z" fill="#102067"/>
<path d="M137.968 225.678C149.075 217.867 159.869 209.664 170.349 201.068C170.938 200.597 170.113 199.773 169.525 200.244C159.123 208.801 148.369 216.925 137.379 224.697C136.751 225.089 137.34 226.11 137.968 225.678Z" fill="#102067"/>
<path d="M137.732 217.592C146.014 211.233 154.374 204.953 162.813 198.791C163.402 198.359 162.813 197.339 162.224 197.77C153.785 203.933 145.425 210.213 137.143 216.571C136.555 217.042 137.143 218.063 137.732 217.592Z" fill="#102067"/>
<path d="M137.692 207.976C142.441 204.639 147.191 201.303 151.94 197.928C152.568 197.496 151.979 196.475 151.351 196.907C146.602 200.243 141.853 203.58 137.103 206.955C136.475 207.387 137.064 208.407 137.692 207.976Z" fill="#102067"/>
<path d="M137.497 200.479C139.852 199.184 142.128 197.732 144.326 196.162C144.954 195.73 144.365 194.71 143.737 195.141C141.539 196.711 139.263 198.164 136.908 199.459C136.241 199.851 136.869 200.872 137.497 200.479Z" fill="#102067"/>
<path d="M137.967 192.236C141.735 189.881 145.464 187.408 149.075 184.857C149.703 184.425 149.114 183.405 148.486 183.837C144.875 186.427 141.146 188.9 137.378 191.216C136.711 191.608 137.3 192.629 137.967 192.236Z" fill="#102067"/>
<path d="M139.458 190.785C145.267 197.575 151.39 204.09 157.749 210.37C158.298 210.92 159.123 210.056 158.573 209.546C152.215 203.266 146.131 196.751 140.283 189.96C139.772 189.372 138.948 190.196 139.458 190.785Z" fill="#102067"/>
<path d="M137.889 200.361C143.698 196.946 149.154 193.06 154.256 188.704C154.845 188.193 153.982 187.369 153.432 187.879C148.408 192.158 142.992 196.004 137.3 199.34C136.633 199.733 137.222 200.753 137.889 200.361Z" fill="#102067"/>
<path d="M137.81 207.741C145.307 203.109 152.411 197.928 159.084 192.198C159.673 191.687 158.809 190.863 158.26 191.373C151.666 197.025 144.601 202.167 137.222 206.72C136.594 207.113 137.182 208.133 137.81 207.741Z" fill="#102067"/>
<path d="M138.438 217.435C146.994 209.899 156.061 202.991 165.599 196.75C166.227 196.318 165.638 195.298 165.01 195.729C155.394 202.049 146.249 209.035 137.614 216.61C137.025 217.081 137.849 217.906 138.438 217.435Z" fill="#102067"/>
<path d="M136.633 206.759C140.009 210.645 143.384 214.57 146.76 218.456C147.27 219.044 148.094 218.181 147.584 217.631C144.208 213.746 140.833 209.821 137.457 205.935C136.947 205.346 136.123 206.17 136.633 206.759Z" fill="#102067"/>
<path d="M137.457 183.994C139.969 182.463 142.403 180.815 144.797 179.088C145.386 178.656 144.797 177.635 144.208 178.067C141.814 179.794 139.381 181.443 136.869 182.973C136.201 183.366 136.79 184.386 137.457 183.994Z" fill="#102067"/>
<path d="M137.143 186.937C138.046 188.193 138.948 189.489 139.851 190.745C140.283 191.373 141.303 190.784 140.872 190.156C139.969 188.9 139.066 187.605 138.163 186.349C137.692 185.721 136.672 186.309 137.143 186.937Z" fill="#102067"/>
<path d="M192.683 78.1763C189.621 79.7856 188.679 82.5723 185.422 91.4428C183.381 96.9378 181.222 102.394 179.259 107.928C175.217 119.114 173.215 124.217 169.565 130.026C167.327 133.597 164.972 136.698 160.93 138.582C158.025 139.917 155.317 140.191 153.511 140.191C149.076 139.956 144.17 139.406 138.989 138.268C137.458 137.954 136.006 137.601 134.554 137.208C134.475 136.62 134.161 134.5 132.591 133.676C130.668 132.695 128.234 134.461 126.704 135.56C126.154 135.952 121.523 139.446 121.287 144.98C121.248 145.804 121.169 148.198 122.19 148.63C123.799 149.297 126.939 144.901 127.332 144.391C126.625 148.159 125.919 151.966 125.212 155.734C126.115 156.088 126.978 156.402 127.881 156.755C128.745 157.775 130.118 159.11 131.414 158.835C132.513 158.6 133.101 157.344 133.337 156.794C134.279 154.871 136.202 152.163 140.598 148.709C138.518 152.084 137.615 155.146 137.144 157.422C136.869 158.757 136.045 163.035 137.34 163.663C138.361 164.134 140.323 162.171 141.383 160.798C144.248 157.03 143.228 153.733 145.426 152.712C146.839 152.084 148.801 152.673 149.626 153.772C150.175 154.478 149.9 154.989 150.175 157.265C150.371 158.992 150.646 160.798 151.745 162.446C152.255 163.231 153.08 164.448 154.139 164.448C155.788 164.409 156.808 161.543 157.044 160.915C157.986 158.325 157.515 155.813 157.005 154.282C159.281 154.282 162.578 154.047 166.307 152.83C169.054 151.927 173.568 149.965 178.985 144.587C185.893 137.719 188.993 130.536 193.468 119.86C198.492 107.849 196.019 109.773 201.396 96.6238C205.164 87.3608 207.559 83.5143 205.596 80.3743C203.555 76.9203 196.961 75.9391 192.683 78.1763Z" fill="white"/>
<path d="M197.157 73.7014C192.173 76.7629 189.033 81.6692 186.678 86.9287C183.891 93.1302 181.732 99.6457 179.377 106.004C174.706 118.525 170.35 135.756 155.906 140.23C155.199 140.466 155.474 141.604 156.22 141.368C169.447 137.286 174.275 123.117 178.631 111.421C181.261 104.316 183.773 97.1729 186.599 90.1472C188.993 84.1812 192.133 78.2152 197.746 74.7612C198.374 74.3294 197.785 73.3089 197.157 73.7014Z" fill="#102067"/>
<path d="M121.326 147.845C121.797 144.195 123.603 140.859 125.683 137.876C126.703 136.424 127.959 134.775 129.686 134.186C131.453 133.598 133.69 134.304 134.122 136.306C134.279 137.052 135.417 136.738 135.26 135.992C134.396 132.067 129.569 132.302 127.057 134.422C125.133 136.07 123.72 138.465 122.543 140.663C121.287 142.939 120.423 145.294 120.109 147.845C120.07 148.591 121.248 148.591 121.326 147.845Z" fill="#102067"/>
<path d="M119.128 147.649C119.285 148.159 119.442 148.669 119.599 149.18C119.678 149.415 119.913 149.611 120.149 149.611C124.976 149.572 126.9 144.587 130.746 142.546C130.511 142.232 130.275 141.918 130.04 141.604C127.959 144.038 126.389 146.785 125.487 149.808C124.937 151.613 123.563 155.852 125.565 157.226C127.606 158.639 129.294 155.656 130 154.243C131.767 150.907 133.651 147.649 136.555 145.137C137.144 144.627 136.28 143.802 135.731 144.313C134.122 145.726 132.787 147.335 131.61 149.101C130.354 150.985 129.49 153.144 128.273 155.028C127.645 155.97 126.115 156.402 125.801 154.753C125.683 154.164 125.918 153.301 126.036 152.712C126.232 151.652 126.468 150.553 126.821 149.533C127.685 146.903 129.098 144.548 130.864 142.468C131.296 141.958 130.746 141.212 130.157 141.526C126.625 143.41 124.545 148.395 120.149 148.434C120.345 148.591 120.541 148.709 120.698 148.866C120.541 148.355 120.384 147.845 120.227 147.335C120.07 146.589 118.932 146.903 119.128 147.649Z" fill="#102067"/>
<path d="M127.567 155.93C126.311 159.266 130.589 160.404 132.827 158.834C134.475 157.696 135.299 155.655 136.359 154.046C137.811 151.848 139.46 149.846 141.344 148.041C141.893 147.491 141.069 146.667 140.52 147.216C138.753 148.943 137.105 150.867 135.731 152.908C134.985 153.967 134.397 155.145 133.69 156.205C133.258 156.833 132.787 157.421 132.159 157.853C130.786 158.756 127.842 158.599 128.705 156.244C128.98 155.537 127.842 155.223 127.567 155.93Z" fill="#102067"/>
<path d="M140.166 148.511C138.478 151.18 137.262 154.124 136.673 157.264C136.359 159.069 135.495 162.641 136.948 164.133C138.204 165.389 139.931 164.407 140.755 163.269C141.736 161.974 142.403 160.325 143.188 158.912C144.17 157.107 145.151 155.301 146.171 153.496C146.525 152.829 145.504 152.24 145.151 152.907C144.052 154.948 142.914 156.95 141.815 158.991C141.265 159.972 140.755 160.993 140.205 161.935C139.656 162.837 139.695 162.994 138.518 162.916C137.222 162.837 137.458 162.563 137.458 161.424C137.419 157.068 138.832 152.789 141.147 149.139C141.618 148.433 140.598 147.844 140.166 148.511Z" fill="#102067"/>
<path d="M146.604 153.693C146.918 153.144 148.095 153.183 148.566 153.418C149.43 153.889 149.547 154.91 149.665 155.773C149.783 156.715 149.704 157.697 149.822 158.639C150.018 160.13 150.529 161.543 151.353 162.76C152.609 164.644 154.768 166.135 156.534 163.937C158.339 161.7 158.536 157.893 158.222 155.185C157.868 152.005 156.612 149.101 154.571 146.667C154.1 146.079 153.276 146.903 153.747 147.492C155.906 150.161 157.123 153.536 157.123 156.99C157.123 158.678 156.966 160.915 156.063 162.446C154.14 165.704 151.745 161.543 151.235 159.934C150.568 157.736 151.549 154.321 149.469 152.673C148.252 151.691 146.368 151.652 145.544 153.104C145.191 153.772 146.211 154.36 146.604 153.693Z" fill="#102067"/>
<path d="M134.475 136.619C137.026 138.778 140.244 139.288 143.463 139.72C147.78 140.309 152.098 140.74 156.455 141.015C157.2 141.054 157.2 139.877 156.455 139.838C152.765 139.602 149.115 139.249 145.465 138.778C142.011 138.346 138.125 138.111 135.338 135.756C134.749 135.285 133.925 136.109 134.475 136.619Z" fill="#102067"/>
<path d="M157.24 155.105C170.742 155.066 181.339 145.254 187.698 134.146C191.23 127.944 193.821 121.233 196.294 114.521C199.041 107.063 201.435 99.4488 203.555 91.7951C203.751 91.0493 202.613 90.7354 202.417 91.4811C200.415 98.6639 198.178 105.807 195.666 112.794C193.35 119.231 190.916 125.707 187.659 131.752C181.536 143.213 171.095 153.889 157.24 153.889C156.494 153.928 156.494 155.105 157.24 155.105Z" fill="#102067"/>
<path d="M202.063 69.7369C197.51 73.3479 194.841 77.8617 192.604 81.7082C190.72 84.8874 187.305 90.8534 186.834 98.1932C186.756 99.5277 186.599 102.236 187.384 105.69C187.933 108.084 188.758 109.968 189.425 111.303C188.993 115.738 188.483 119.31 188.13 121.665C187.345 126.806 186.717 129.672 187.07 133.989C187.227 136.069 187.58 137.718 187.816 138.778C194.724 142.585 200.886 144.194 205.046 144.979C217.332 147.256 227.144 144.822 232.207 143.488C239.155 141.682 244.61 139.092 248.339 137.09C248.928 133.322 249.595 128.298 250.105 122.293C250.93 113.265 251.008 106.593 251.008 104.63C251.126 93.9542 251.165 88.6162 249.517 83.2782C248.221 79.0784 246.416 73.1124 241.313 68.6379C231.069 59.6104 212.582 61.3767 202.063 69.7369Z" fill="white"/>
<path d="M201.67 69.3047C195.155 75.5062 190.052 83.3562 187.501 91.9912C186.245 96.2694 185.656 100.822 186.677 105.218C187.226 107.573 188.365 109.811 188.561 112.244C188.757 114.992 188.09 117.739 187.737 120.447C187.069 125.628 186.324 131.006 186.402 136.265C186.481 140.347 190.994 141.328 194.213 142.467C202.534 145.41 211.444 146.588 220.275 146.038C230.244 145.41 239.939 142.584 248.653 137.717C249.32 137.364 248.731 136.344 248.064 136.697C233.345 144.979 215.486 147.177 199.158 142.781C197.196 142.27 195.273 141.642 193.349 140.897C191.191 140.072 187.776 139.287 187.58 136.54C187.462 134.263 187.776 131.869 187.972 129.593C188.168 127.041 188.404 124.49 188.718 121.978C189.267 117.543 190.366 113.186 188.993 108.79C188.325 106.671 187.58 104.63 187.383 102.392C187.148 99.9197 187.383 97.4469 187.933 95.0134C189.974 85.5149 195.508 76.8014 202.495 70.1682C203.044 69.6187 202.22 68.7944 201.67 69.3047Z" fill="#102067"/>
<path d="M248.888 79.7058C251.322 98.6635 250.851 117.935 247.514 136.775C247.397 137.521 248.535 137.835 248.653 137.089C252.028 118.132 252.499 98.7813 250.066 79.7058C249.987 78.96 248.81 78.96 248.888 79.7058Z" fill="#102067"/>
<path d="M226.398 101.412C224.907 100.667 223.808 99.4107 223.415 97.7622C223.258 97.0557 223.14 95.7604 223.69 95.1717C225.181 93.6017 225.927 95.4072 226.32 96.3492C226.516 96.8202 227.34 96.9772 227.458 96.3492C227.536 95.9174 227.733 95.0932 228.125 94.8577C228.635 94.7007 229.106 94.5437 229.617 94.4259C229.891 95.0932 230.166 95.7604 230.48 96.3884C230.48 97.1342 229.852 98.1939 229.499 98.7827C228.635 100.235 227.379 101.295 225.888 102.04C225.221 102.394 225.809 103.414 226.477 103.061C229.067 101.766 232.521 98.1939 231.697 94.9754C231.383 93.7587 230.205 93.0522 228.989 93.2092C227.497 93.4054 226.634 94.7007 226.398 96.0744C226.791 96.0744 227.144 96.0744 227.536 96.0744C227.105 94.9754 226.477 93.6802 225.181 93.4054C224.004 93.1699 223.062 93.9549 222.552 94.9754C221.256 97.8014 223.337 101.177 225.888 102.433C226.477 102.786 227.065 101.766 226.398 101.412Z" fill="#102067"/>
<path d="M186.756 134.029C205.203 145.411 229.617 145.411 248.064 134.068C248.692 133.675 248.103 132.655 247.475 133.047C229.381 144.194 205.439 144.194 187.384 133.008C186.716 132.616 186.128 133.636 186.756 134.029Z" fill="#102067"/>
<path d="M186.912 129.712C206.066 140.859 231.304 139.642 249.281 126.65C249.869 126.218 249.32 125.198 248.692 125.63C231.069 138.386 206.341 139.642 187.54 128.691C186.834 128.338 186.245 129.358 186.912 129.712Z" fill="#102067"/>
<path d="M187.462 124.923C191.466 128.142 196.372 129.594 201.396 130.261C207.284 131.046 213.367 131.243 219.333 131.007C230.598 130.575 242.02 127.749 250.694 120.213C251.283 119.703 250.419 118.879 249.87 119.389C241.431 126.729 230.284 129.398 219.333 129.83C213.838 130.026 208.265 129.869 202.809 129.241C197.628 128.652 192.447 127.396 188.287 124.06C187.698 123.589 186.874 124.452 187.462 124.923Z" fill="#102067"/>
<path d="M188.365 121.115C198.766 125.236 210.07 127.002 221.257 126.217C226.634 125.825 231.972 124.883 237.114 123.313C242.02 121.821 246.769 119.859 250.616 116.444C251.165 115.934 250.341 115.109 249.791 115.62C245.827 119.152 240.842 121.036 235.779 122.488C230.598 123.98 225.221 124.843 219.844 125.157C209.207 125.746 198.57 123.941 188.679 120.016C187.973 119.702 187.659 120.84 188.365 121.115Z" fill="#102067"/>
<path d="M188.718 115.698C189.974 117.268 191.819 117.7 193.742 117.975C196.333 118.328 198.923 118.603 201.514 118.838C207.126 119.427 212.778 119.859 218.43 119.937C229.185 120.016 239.939 118.563 249.673 113.814C250.341 113.5 249.752 112.48 249.085 112.794C239.743 117.347 229.42 118.799 219.098 118.76C214.034 118.76 208.971 118.406 203.908 117.896C201.514 117.661 199.119 117.386 196.686 117.111C194.252 116.836 191.191 116.915 189.503 114.835C189.071 114.285 188.208 115.149 188.718 115.698Z" fill="#102067"/>
<path d="M189.15 111.814C193.585 113.933 198.452 114.09 203.28 114.169C209.01 114.286 214.741 114.326 220.511 114.208C230.402 114.012 241.313 114.483 250.38 109.93C251.047 109.576 250.458 108.556 249.791 108.909C240.96 113.344 230.166 112.834 220.511 113.03C215.408 113.109 210.306 113.109 205.203 113.03C200.022 112.952 194.566 113.07 189.778 110.793C189.071 110.479 188.483 111.5 189.15 111.814Z" fill="#102067"/>
<path d="M187.423 106.122C192.093 107.889 197.078 108.006 202.024 108.281C207.636 108.556 213.288 108.831 218.901 109.105C229.734 109.616 240.096 109.105 250.223 104.866C250.929 104.591 250.615 103.453 249.909 103.728C239.9 107.928 229.616 108.438 218.901 107.928C213.642 107.692 208.421 107.418 203.162 107.143C197.981 106.868 192.682 106.829 187.737 104.984C187.03 104.709 186.716 105.848 187.423 106.122Z" fill="#102067"/>
<path d="M186.559 101.372C197.981 102.746 209.442 103.374 220.942 103.178C226.555 103.099 232.168 102.785 237.781 102.314C240.293 102.118 242.844 101.922 245.356 101.529C247.201 101.254 248.81 100.744 249.987 99.2135C250.458 98.6247 249.438 98.036 248.967 98.6247C247.397 100.705 243.943 100.548 241.627 100.783C238.958 101.058 236.289 101.294 233.62 101.451C228.4 101.804 223.18 102 217.92 102C207.44 102.039 197 101.411 186.599 100.155C185.814 100.116 185.814 101.294 186.559 101.372Z" fill="#102067"/>
<path d="M186.834 97.094C198.099 99.135 209.599 99.4883 220.942 98.193C221.688 98.1145 221.688 96.937 220.942 97.0155C209.678 98.3108 198.295 97.9968 187.109 95.9558C186.402 95.838 186.088 96.9763 186.834 97.094Z" fill="#102067"/>
<path d="M230.755 98.8221C237.741 98.6651 244.492 96.6633 250.458 93.0131C251.086 92.6206 250.497 91.6001 249.869 91.9926C244.06 95.5251 237.545 97.4483 230.755 97.6446C230.009 97.6446 230.009 98.8221 230.755 98.8221Z" fill="#102067"/>
<path d="M188.679 92.8157C199.983 95.3277 211.601 96.0734 223.141 95.0529C223.887 94.9744 223.887 93.7969 223.141 93.8754C211.719 94.8959 200.219 94.1894 188.993 91.6774C188.248 91.5204 187.934 92.6194 188.679 92.8157Z" fill="#102067"/>
<path d="M231.069 94.9744C238.056 94.7781 244.767 92.6586 250.655 88.8514C251.283 88.4196 250.694 87.3991 250.066 87.8309C244.375 91.5596 237.899 93.6006 231.069 93.7969C230.323 93.7969 230.323 94.9744 231.069 94.9744Z" fill="#102067"/>
<path d="M189.503 87.8702C199.119 91.7952 210.03 91.5597 220.235 91.3242C225.652 91.2064 231.108 90.9709 236.485 90.3037C240.959 89.7542 245.355 88.6552 249.202 86.3002C249.83 85.9077 249.241 84.8872 248.613 85.2797C244.413 87.8309 239.664 88.8514 234.836 89.3224C229.734 89.8327 224.592 90.0682 219.45 90.1859C209.559 90.3822 199.119 90.5392 189.817 86.7319C189.11 86.4572 188.796 87.5954 189.503 87.8702Z" fill="#102067"/>
<path d="M192.329 84.9275C211.247 89.1272 230.951 88.774 249.712 83.907C250.458 83.7107 250.144 82.5725 249.398 82.7687C230.833 87.5572 211.326 87.9105 192.643 83.7892C191.897 83.593 191.583 84.7312 192.329 84.9275Z" fill="#102067"/>
<path d="M194.605 79.196C198.177 81.0015 202.416 80.8838 206.341 81.1193C211.09 81.4333 215.84 81.7473 220.628 81.8258C225.26 81.9435 229.891 81.865 234.483 81.5118C238.408 81.1978 242.804 81.08 246.18 78.9213C246.808 78.5288 246.219 77.5083 245.591 77.9008C242.059 80.138 237.349 80.138 233.306 80.4128C229.067 80.6875 224.828 80.7268 220.589 80.6483C216.467 80.5698 212.346 80.3343 208.225 80.0595C203.986 79.7848 199.04 80.0988 195.155 78.1363C194.527 77.8223 193.938 78.8428 194.605 79.196Z" fill="#102067"/>
<path d="M196.843 75.8982C211.522 76.2122 226.202 76.4869 240.881 76.8009C241.627 76.8009 241.627 75.6234 240.881 75.6234C226.202 75.3094 211.522 75.0347 196.843 74.7207C196.058 74.7207 196.058 75.8982 196.843 75.8982Z" fill="#102067"/>
<path d="M199.865 72.8767C208.539 72.5234 217.213 72.2094 225.848 71.8562C226.594 71.8169 226.594 70.6394 225.848 70.6787C217.174 71.0319 208.5 71.3459 199.865 71.6992C199.119 71.6992 199.119 72.8767 199.865 72.8767Z" fill="#102067"/>
<path d="M242.177 81.7474C238.919 87.3994 239.272 94.0719 239.312 95.0924C239.743 104.512 238.173 95.7989 238.409 117.308C238.605 135.127 239.626 135.912 238.252 141.682C237.388 145.332 235.701 152.162 230.166 158.481C225.653 163.662 220.393 166.41 215.605 168.922C211.523 171.041 207.951 172.415 205.321 173.278C202.377 169.275 200.14 165.978 198.688 163.78C194.998 158.285 193.036 154.87 188.797 151.612C185.618 149.179 183.537 148.629 181.85 149.1C180.594 149.454 179.102 150.435 179.102 151.495C179.102 152.751 181.104 153.025 182.438 155.184C183.223 156.479 183.38 157.814 183.42 158.795C182.124 157.932 179.926 156.676 176.943 156.008C176.355 155.891 173.921 155.38 170.546 155.734C168.308 155.969 161.793 156.676 159.124 161.15C158.535 162.131 157.75 163.937 158.378 164.604C159.085 165.35 161.047 164.369 163.324 163.544C165.522 162.799 168.701 161.974 172.822 161.857C171.017 162.485 167.641 163.898 164.501 167.077C161.4 170.217 160.027 173.514 159.438 175.319C160.498 175.162 161.557 175.005 162.617 174.848C160.38 175.673 158.967 177.674 159.085 179.715C159.202 181.521 160.498 182.659 160.812 182.934C159.202 184.739 158.928 186.937 159.791 187.919C160.772 189.057 163.049 188.586 164.462 187.84C166.895 186.506 166.424 184.308 168.779 181.207C171.174 178.067 174.431 176.772 175.609 176.379C176.551 176.065 180.319 174.809 184.479 176.183C187.423 177.164 187.266 178.342 192.918 181.835C196.961 184.347 198.374 184.543 199.12 184.582C202.22 184.818 204.772 183.209 206.106 182.188C208.147 182.738 211.052 183.287 214.545 183.326C223.926 183.405 230.755 179.558 233.542 177.949C240.568 173.867 244.493 168.765 246.808 165.703C251.558 159.384 253.599 153.614 255.051 149.414C257.955 140.936 258.505 134.028 259.015 127.591C259.565 120.369 259.29 115.031 259.054 110.282C258.74 104.395 258.152 98.9781 256.778 92.9729C255.836 88.8124 254.344 83.6706 250.341 80.2166C248.182 78.3719 246.769 78.2541 245.906 78.4111C244.375 78.6859 243.237 79.9419 242.177 81.7474Z" fill="white"/>
<path d="M243.079 79.0778C239.429 84.3373 238.997 90.8136 238.566 97.0151C238.016 104.865 237.741 112.715 237.781 120.604C237.82 128.376 238.88 136.579 237.192 144.272C235.779 150.788 231.932 156.44 226.987 160.836C220.707 166.409 212.935 169.863 205.164 172.768C204.457 173.042 204.771 174.181 205.478 173.906C217.802 169.274 230.912 162.72 236.564 150.042C239.508 143.409 239.311 136.187 239.115 129.122C238.88 120.879 238.958 112.637 239.351 104.433C239.743 96.3871 239.351 86.6923 244.139 79.7843C244.532 79.0386 243.511 78.4498 243.079 79.0778Z" fill="#102067"/>
<path d="M244.924 79.6672C249.006 76.5665 253.01 84.8482 254.226 87.5957C256.11 91.874 257.131 96.5055 257.68 101.137C258.858 110.635 258.976 120.487 258.191 129.986C256.699 147.727 250.105 166.841 234.366 176.811C226.045 182.07 215.84 184.268 206.263 181.678C205.517 181.482 205.203 182.62 205.949 182.816C224.671 187.84 242.569 175.869 251.243 159.776C255.993 150.945 258.387 141.054 259.329 131.085C260.31 120.566 260.232 109.497 258.622 99.0175C257.798 93.6402 256.307 88.263 253.52 83.5922C251.871 80.8055 248.025 75.86 244.335 78.686C243.747 79.0785 244.335 80.099 244.924 79.6672Z" fill="#102067"/>
<path d="M205.163 172.101C201.827 167.312 198.569 162.445 195.155 157.696C192.76 154.36 189.974 151.024 186.127 149.375C184.047 148.512 178.395 147.491 178.473 151.298C178.552 154.242 183.38 154.87 183.066 157.735C182.987 158.481 184.165 158.481 184.243 157.735C184.479 155.498 182.202 154.321 180.828 153.025C180.397 152.633 179.886 152.162 179.729 151.573C179.376 150.003 181.339 149.611 182.477 149.65C184.479 149.728 186.48 150.67 188.09 151.809C191.308 154.046 193.545 157.421 195.743 160.601C198.53 164.643 201.317 168.647 204.143 172.69C204.575 173.318 205.595 172.729 205.163 172.101Z" fill="#102067"/>
<path d="M205.517 180.893C204.104 184.622 199.277 184.544 196.254 183.17C193.428 181.914 191.23 179.716 188.718 177.95C184.283 174.81 178.749 173.828 173.843 176.576C171.488 177.91 169.918 180.03 168.465 182.189C167.523 183.602 166.621 185.015 165.404 186.192C164.737 186.859 161.126 190.039 160.341 187.919C159.909 186.82 161.322 184.151 161.793 183.288C162.499 181.953 163.441 180.697 164.462 179.559C166.542 177.243 168.976 175.281 171.409 173.397C171.998 172.926 171.174 172.101 170.585 172.572C166.503 175.712 162.107 179.245 160.105 184.112C159.595 185.368 158.339 188.469 159.791 189.568C161.243 190.667 164.03 188.9 165.168 187.998C167.17 186.428 168.465 184.269 169.878 182.189C171.841 179.363 174.157 177.086 177.611 176.34C180.947 175.595 184.205 176.34 187.07 178.146C189.543 179.755 191.662 181.835 194.213 183.327C198.138 185.643 204.693 186.31 206.656 181.129C206.93 180.501 205.792 180.187 205.517 180.893Z" fill="#102067"/>
<path d="M161.047 182.462C156.612 180.539 163.049 175.162 164.815 173.631C167.445 171.355 170.389 169.431 173.489 167.861C174.157 167.508 173.568 166.488 172.901 166.841C168.544 169.078 164.54 171.943 161.126 175.515C159.163 177.556 156.573 181.795 160.458 183.483C161.165 183.758 161.754 182.776 161.047 182.462Z" fill="#102067"/>
<path d="M160.497 174.457C160.183 174.535 161.204 171.866 161.361 171.552C161.753 170.885 162.185 170.257 162.656 169.668C163.637 168.491 164.815 167.509 166.032 166.646C168.426 164.997 171.134 163.781 173.803 162.603C174.51 162.289 173.882 161.269 173.214 161.583C168.936 163.506 164.422 165.508 161.439 169.315C160.811 170.139 157.279 176.262 160.811 175.556C161.557 175.438 161.243 174.3 160.497 174.457Z" fill="#102067"/>
<path d="M182.36 157.422C175.648 153.733 166.738 154.282 160.615 158.953C159.359 159.895 157.828 161.151 157.397 162.721C157.043 164.016 157.671 165.311 159.045 165.586C160.694 165.939 162.381 164.605 163.755 163.977C166.581 162.682 169.682 162.25 172.783 162.485C173.528 162.525 173.528 161.347 172.783 161.308C169.486 161.072 166.189 161.583 163.166 162.996C162.381 163.349 161.439 164.134 160.576 164.252C160.419 164.291 160.223 164.369 160.066 164.409C159.555 163.977 159.045 163.506 158.574 163.074C158.496 162.682 159.281 161.857 159.516 161.583C160.615 160.366 161.989 159.385 163.402 158.6C169.015 155.46 176.197 155.342 181.81 158.443C182.438 158.835 183.027 157.815 182.36 157.422Z" fill="#102067"/>
<path d="M194.566 23.6189C191.779 27.0337 191.348 30.9979 190.72 37.0817C190.327 40.9674 189.895 44.8139 191.151 49.4847C193.035 56.6282 199.041 66.5977 206.302 66.9509C209.874 67.1472 213.642 64.9884 216.232 67.2649C217.331 68.2069 217.527 69.3844 218.823 69.7377C220.864 70.3264 223.179 68.1284 224.043 67.2649C225.927 65.4202 228.36 62.1232 230.637 49.3277C232.285 40.0647 231.775 37.5134 231.383 36.0219C230.401 32.3324 228.517 29.7419 227.183 27.9364C225.456 25.5814 222.394 21.4602 217.37 19.2622C210.031 16.1222 199.629 17.4174 194.566 23.6189Z" fill="white"/>
<path d="M201.396 14.2377C197.746 14.2377 195.234 13.0994 193.978 12.3929C192.329 11.4509 190.092 10.1949 190.053 8.19317C190.053 6.93717 190.916 5.64192 192.054 5.13167C193.742 4.34667 195.626 5.48492 197.549 6.66242C198.805 7.40817 200.768 8.86042 202.613 11.3724C202.848 11.1369 203.555 10.4697 204.693 10.3519C205.282 10.2734 205.792 10.3912 206.106 10.5089C206.341 9.33142 206.852 7.56517 207.872 5.60267C209.128 3.16917 210.031 1.44217 211.679 1.24592C213.367 1.04967 215.29 2.54117 215.722 4.30742C216.075 5.68117 215.408 6.81942 214.427 8.42867C212.778 11.2154 210.384 12.7069 209.285 13.4134C208.461 13.9237 207.794 14.2377 207.283 14.4339C208.265 14.5517 209.678 14.8264 211.287 15.4544C214.78 16.8282 216.861 18.9477 218.352 20.5177C220.589 22.8727 224.279 26.7192 223.768 31.2329C223.69 31.9394 223.533 33.3132 222.748 33.6272C221.256 34.2159 219.176 30.4479 216.389 27.8574C208.696 20.7924 196.215 23.6969 195.901 21.0279C195.783 19.9682 197.589 18.6337 198.295 18.0842C200.061 16.7889 201.749 16.5927 201.906 15.5329C202.024 15.0227 201.631 14.5124 201.396 14.2377Z" fill="white"/>
<path d="M199.394 41.6348C199.904 45.4028 200.414 49.1708 200.924 52.9388C202.141 52.7818 203.397 52.6248 204.614 52.4678C202.848 48.8568 201.121 45.2458 199.394 41.6348Z" fill="#102067"/>
<path d="M191.466 37.905C191.23 37.4732 191.819 36.7275 192.094 36.335C192.211 36.178 193.546 34.4903 194.566 34.922C195.194 35.1968 195.508 36.2957 195.194 37.0415C194.645 38.4545 191.858 38.5722 191.466 37.905Z" fill="#102067"/>
<path d="M196.843 22.088C196.764 23.4225 196.764 25.5027 197.588 27.8185C199.904 34.3732 206.498 36.8067 207.872 37.317C213.642 39.4365 218.744 38.0627 220.55 37.474C221.021 36.846 221.688 35.747 221.923 34.2162C222.002 33.706 222.159 32.2145 221.295 30.0165C219.372 25.1887 214.427 21.931 214.073 21.7347C212.15 20.518 207.008 17.221 200.179 18.3985C198.648 18.6732 193.114 19.8115 189.11 24.8747C188.011 26.2485 185.225 30.252 185.421 35.7862C185.539 39.515 186.912 42.184 187.58 43.4007C188.051 44.2642 189.817 47.5612 190.72 47.2472C191.897 46.894 190.052 41.242 190.955 34.962C191.74 29.3885 194.448 25.071 196.843 22.088Z" fill="#102067"/>
<path d="M191.309 50.1914C191.348 51.4474 191.348 53.3314 191.426 55.5687C191.662 65.6559 191.78 70.6799 192.29 75.0759C192.761 79.4719 193.899 85.6734 196.764 93.1702C197.157 87.7929 197.589 82.4157 197.981 77.0384C200.022 76.4889 201.71 75.9394 203.005 75.4684C205.949 74.3694 209.207 73.1527 212.621 70.5229C214.27 69.2669 215.487 68.0502 216.232 67.2652C216.115 65.4204 215.683 63.3009 214.388 62.7907C212.896 62.2019 211.522 64.2037 208.893 64.9494C204.693 66.0877 200.493 63.0262 198.648 61.6917C193.271 57.8059 191.74 52.0754 191.309 50.1914Z" fill="#102067"/>
<path d="M224.357 46.1475C224.161 48.1885 223.925 51.1322 223.729 54.704C223.258 62.24 222.826 69.3835 223.219 78.1362C223.376 81.2762 223.65 85.5937 224.278 90.7355C224.985 90.2252 225.966 89.3225 226.751 87.988C227.968 85.9077 227.889 84.063 228.086 81.237C228.203 79.4315 228.478 76.8017 229.145 73.6225C231.343 73.9365 233.541 74.2897 235.7 74.6037C239.468 75.1532 243.197 75.742 246.965 76.2915C246.376 74.643 245.473 72.2095 244.453 69.2265C241.823 61.6512 240.449 57.7654 239.311 53.0947C238.33 49.052 237.82 45.7942 237.427 43.4C236.132 35.1967 236.642 33.4697 235.072 29.113C234.052 26.3262 232.953 23.147 229.852 20.3602C226.241 17.0632 222.041 16.1997 220.196 15.8465C217.292 15.297 214.858 15.4147 213.249 15.611C214.309 16.396 215.8 17.5735 217.292 19.222C218.234 20.2817 220.942 23.4217 222.63 28.328C223.101 29.7017 223.69 31.6642 223.964 34.0977C224.867 34.1762 226.476 34.4902 227.693 35.707C230.166 38.219 229.695 43.243 227.026 45.2055C226.123 45.9512 225.103 46.1082 224.357 46.1475Z" fill="#102067"/>
<path d="M190.994 31.194C189.071 42.027 188.6 56.2355 199.354 62.908C208.696 68.6777 220.942 63.4575 223.846 53.0562C224.043 52.3105 222.904 51.9965 222.708 52.7422C219.882 62.8687 207.636 67.5395 199.001 61.2202C189.738 54.4692 190.405 41.5167 192.172 31.508C192.25 30.7622 191.112 30.4482 190.994 31.194Z" fill="#102067"/>
<path d="M221.217 38.0622C220.668 33.5092 226.398 32.3317 228.204 36.3745C229.734 39.8285 229.028 45.3627 224.318 45.5982C223.572 45.6375 223.572 46.815 224.318 46.7757C230.323 46.501 231.54 38.8865 228.596 34.6867C225.731 30.5655 219.412 33.1952 220 38.0622C220.118 38.808 221.296 38.808 221.217 38.0622Z" fill="#102067"/>
<path d="M196.254 21.9309C195.312 27.6221 199.237 32.8031 203.751 35.8254C208.775 39.2009 215.055 39.8289 220.589 37.3954C221.296 37.0814 220.668 36.0609 220 36.3749C215.055 38.5729 209.442 37.9842 204.889 35.1189C200.65 32.4499 196.568 27.5044 197.432 22.2056C197.51 21.4991 196.372 21.1851 196.254 21.9309Z" fill="#102067"/>
<path d="M191.779 32.4107C192.682 28.8782 194.409 25.7774 196.999 23.2262C197.549 22.6767 196.685 21.8524 196.175 22.4019C193.467 25.1102 191.583 28.4072 190.641 32.0967C190.445 32.8424 191.583 33.1172 191.779 32.4107Z" fill="#102067"/>
<path d="M196.45 19.4178C190.837 19.9673 186.716 26.0118 185.382 31.0751C183.851 36.8056 185.539 42.9286 189.778 47.0891C190.327 47.5993 191.151 46.7751 190.602 46.2648C186.834 42.5753 185.225 37.1588 186.402 31.9778C187.462 27.3071 191.23 21.1056 196.489 20.5953C197.196 20.5168 197.235 19.3393 196.45 19.4178Z" fill="#102067"/>
<path d="M196.372 20.674C201.71 18.5937 207.793 18.79 212.817 21.616C215.094 22.9112 217.135 24.6775 218.705 26.7577C219.333 27.6212 219.922 28.524 220.393 29.466C220.628 29.937 221.963 32.3705 221.766 32.763C222.002 32.6845 222.198 32.5667 222.434 32.4882C222.394 32.4882 222.316 32.449 222.277 32.449C222.394 32.6845 222.551 32.92 222.669 33.1555C222.669 33.1162 222.669 33.077 222.708 33.0377C222.865 32.292 221.727 31.978 221.57 32.7237C221.57 32.763 221.57 32.8022 221.531 32.8415C221.452 33.1555 221.609 33.4695 221.923 33.548C221.963 33.548 222.041 33.5872 222.08 33.5872C222.316 33.6657 222.63 33.548 222.748 33.3125C223.493 31.7032 221.217 28.3277 220.353 27.0325C218.783 24.6775 216.742 22.6365 214.387 21.1057C208.932 17.5732 202.024 17.1022 196.018 19.4572C195.351 19.8105 195.665 20.9487 196.372 20.674Z" fill="#102067"/>
<path d="M197.588 20.0865C201.709 14.0812 210.03 14.356 215.565 18.1632C220.353 21.4602 223.258 27.0337 223.258 32.8427C223.258 33.5885 224.435 33.5885 224.435 32.8427C224.435 26.2487 220.903 19.8902 215.211 16.5147C209.128 12.943 200.807 13.2962 196.607 19.4585C196.136 20.1257 197.156 20.7145 197.588 20.0865Z" fill="#102067"/>
<path d="M202.494 15.5327C202.141 14.0804 202.298 11.3722 204.143 10.9797C206.184 10.5087 206.773 13.2954 207.008 14.7084C207.126 15.4542 208.264 15.1402 208.146 14.3944C207.793 12.3142 206.616 9.05641 203.829 9.80216C201.356 10.4694 200.846 13.7272 201.395 15.8467C201.552 16.5924 202.691 16.2784 202.494 15.5327Z" fill="#102067"/>
<path d="M202.494 10.4704C200.807 7.56591 191.858 0.50091 189.699 6.30991C187.383 12.4722 197.47 14.2384 201.278 14.7879C202.023 14.9057 202.337 13.7674 201.592 13.6497C198.334 13.1787 191.347 12.3937 190.719 8.27241C190.484 6.74166 191.308 5.32866 193.035 5.32866C194.252 5.32866 195.508 6.11366 196.528 6.66316C198.491 7.80141 200.375 9.05741 201.552 11.0592C201.827 11.7264 202.848 11.1377 202.494 10.4704Z" fill="#102067"/>
<path d="M206.655 10.6268C207.048 8.74279 207.676 6.97654 208.657 5.32804C209.167 4.50379 209.717 3.67954 210.384 2.97304C211.169 2.10954 210.933 2.26654 212.464 2.58054C214.034 2.89454 214.387 3.16929 214.544 4.77854C214.937 9.37079 210.619 12.1968 207.008 13.9238C206.341 14.2378 206.93 15.2583 207.597 14.9443C210.384 13.649 213.21 11.9613 214.741 9.13529C215.918 6.93729 216.35 3.83654 214.584 1.79554C210.384 -3.11071 206.145 7.32979 205.517 10.3128C205.36 11.0585 206.498 11.3725 206.655 10.6268Z" fill="#102067"/>
<path d="M213.288 16.2783C218.979 15.7288 225.141 16.9063 229.498 20.8706C234.051 24.9918 235.229 31.2326 236.014 37.0416C236.838 43.1253 237.662 49.1698 239.193 55.1358C240.841 61.5336 243.039 67.7743 245.748 73.8188C246.062 74.5253 247.082 73.8973 246.768 73.2301C243.746 66.4006 241.312 59.2963 239.664 51.9958C238.212 45.5588 237.741 39.0433 236.524 32.5671C235.503 27.2683 233.384 22.1658 228.909 18.9081C224.474 15.6503 218.704 14.6298 213.288 15.1401C212.503 15.1793 212.503 16.3568 213.288 16.2783Z" fill="#102067"/>
<path d="M224.16 45.756C222.041 60.671 221.884 75.7822 223.689 90.7757C223.728 91.1682 224.16 91.5607 224.592 91.286C230.519 87.4395 227.536 79.3932 229.694 73.8197C229.459 73.9375 229.223 74.0945 228.988 74.2122C234.954 75.115 240.881 76.0177 246.847 76.8812C247.278 76.9597 247.71 76.6457 247.553 76.1747C247.121 74.8402 246.69 73.4665 246.297 72.132C246.062 71.4255 244.923 71.7002 245.159 72.446C245.591 73.7805 246.022 75.1542 246.415 76.4887C246.65 76.2532 246.886 76.0177 247.121 75.7822C241.155 74.8795 235.229 73.9767 229.263 73.1132C228.909 73.074 228.674 73.1917 228.556 73.5057C226.515 78.6867 229.38 86.7722 223.964 90.3047C224.278 90.4617 224.553 90.658 224.867 90.815C223.061 75.9785 223.218 60.9457 225.298 46.1092C225.416 45.3242 224.278 45.0102 224.16 45.756Z" fill="#102067"/>
<path d="M190.837 51.1337C190.798 65.6954 190.876 80.6104 196.136 94.4264C196.371 95.0544 197.274 94.9759 197.274 94.2694C197.509 90.1089 197.706 85.9484 197.941 81.7487C197.98 80.6889 197.784 79.1582 198.177 78.1769C198.726 76.6854 200.061 76.3714 201.395 75.8219C203.436 74.9584 205.477 74.1342 207.518 73.3099C210.109 72.2502 213.798 71.4259 215.525 68.9924C216.742 67.2262 216.624 64.8319 214.858 63.5367C214.269 63.0657 213.68 64.0862 214.269 64.5572C216.624 66.3627 214.191 69.0709 212.464 70.0129C210.933 70.8372 209.206 71.3867 207.557 72.0539C205.87 72.7212 204.182 73.4277 202.533 74.0949C201.16 74.6444 199.511 75.1154 198.294 75.9789C196.332 77.4312 196.842 80.8067 196.724 82.8869C196.528 86.6942 196.332 90.4622 196.136 94.2694C196.528 94.2302 196.921 94.1517 197.274 94.1124C192.054 80.4142 191.975 65.6169 192.014 51.1337C192.014 50.3487 190.837 50.3487 190.837 51.1337Z" fill="#102067"/>
<path d="M214.112 63.6135C214.662 65.8507 215.722 68.4412 217.723 69.815C219.215 70.8355 221.295 70.8747 222.512 69.3832C222.983 68.7945 222.159 67.9702 221.688 68.559C220.432 70.0897 218.508 69.2262 217.449 67.9702C216.35 66.675 215.683 64.948 215.251 63.2995C215.055 62.5537 213.916 62.8677 214.112 63.6135Z" fill="#102067"/>
<path d="M198.609 42.8903C199.041 45.7948 199.473 48.6993 199.904 51.6038C200.179 53.2523 200.807 54.1158 202.613 53.684C203.829 53.4093 204.614 52.585 204.143 51.329C203.712 50.2693 202.848 49.2488 202.299 48.189C201.514 46.6975 200.886 45.1668 200.336 43.5968C200.101 42.8903 198.962 43.165 199.198 43.9108C200.022 46.619 201.553 49.7983 201.514 52.6243C201.514 53.37 202.691 53.37 202.691 52.6243C202.73 49.6413 201.2 46.4228 200.336 43.5968C199.944 43.7145 199.59 43.793 199.198 43.9108C199.669 45.2453 200.179 46.5798 200.807 47.875C201.16 48.5815 201.553 49.288 201.945 49.9945C202.259 50.544 203.672 52.0355 202.299 52.5458C200.768 53.0953 200.611 48.3853 200.493 47.6788C200.258 45.991 199.983 44.3033 199.747 42.6155C199.63 41.8305 198.491 42.1445 198.609 42.8903Z" fill="#102067"/>
<path d="M195.469 46.3052C194.723 45.4417 194.566 44.3427 194.959 43.283C194.645 43.3615 194.291 43.44 193.977 43.5577C194.841 44.4605 195.233 45.6772 194.959 46.894C195.233 46.7762 195.547 46.6585 195.822 46.5407C195.43 46.3445 195.194 46.0305 195.155 45.5987C195.116 44.853 193.938 44.853 193.977 45.5987C194.056 46.4622 194.448 47.1687 195.233 47.5612C195.547 47.7182 196.018 47.6005 196.097 47.208C196.45 45.5595 195.979 43.911 194.802 42.6942C194.488 42.341 193.938 42.5372 193.82 42.969C193.31 44.4212 193.663 45.952 194.645 47.1295C195.116 47.7182 195.94 46.894 195.469 46.3052Z" fill="#102067"/>
<path d="M207.872 42.026C207.518 41.7512 207.204 41.4372 206.969 41.0447C206.851 40.8485 206.733 40.6522 206.694 40.4167C206.694 40.3382 206.655 40.2205 206.655 40.142C206.616 40.1812 206.616 40.1812 206.576 40.2205C206.616 40.2205 206.694 40.1812 206.733 40.2205C207.087 40.4167 207.244 40.4952 207.401 40.927C207.558 41.398 207.558 41.9475 207.322 42.4185C207.558 42.34 207.754 42.2222 207.989 42.1437C207.911 42.1437 207.832 42.0652 207.793 41.9867C207.558 41.2802 206.419 41.5942 206.655 42.3007C206.812 42.811 207.165 43.125 207.675 43.282C207.911 43.3605 208.225 43.2427 208.343 43.0072C208.971 41.5942 208.617 39.0822 206.655 39.043C205.831 39.043 205.32 39.7495 205.517 40.5345C205.713 41.4372 206.341 42.3007 207.047 42.8502C207.636 43.3212 208.46 42.497 207.872 42.026Z" fill="#102067"/>
<path d="M192.25 37.5915C192.446 36.9635 192.682 36.2178 193.231 35.7468C193.663 35.3935 194.605 35.1973 194.919 35.8253C195.272 36.4925 194.173 37.199 193.663 37.3953C193.035 37.6308 192.368 37.6308 191.74 37.356C191.033 37.042 190.444 38.0625 191.151 38.3765C192.289 38.8475 193.506 38.8475 194.605 38.2588C195.547 37.7093 196.528 36.5318 196.018 35.3935C195.586 34.4515 194.369 34.0198 193.427 34.2945C192.132 34.6478 191.465 36.0608 191.112 37.2383C190.915 38.0233 192.054 38.3373 192.25 37.5915Z" fill="#102067"/>
<path d="M194.017 37.1996C193.978 36.7286 194.409 36.2576 194.88 36.3753C194.763 36.1006 194.645 35.7866 194.527 35.5118C194.331 35.7866 193.938 36.4146 193.546 36.3753C193.428 36.3753 193.428 36.2968 193.35 36.2183C193.193 36.1398 193.428 36.1006 193.271 36.1791C193.899 35.7866 193.31 34.7661 192.682 35.1586C191.78 35.7081 192.133 36.9248 192.918 37.3566C193.978 37.9453 194.998 36.8856 195.548 36.0613C195.783 35.7473 195.548 35.2763 195.194 35.1978C194.017 34.9231 192.761 35.9043 192.839 37.1603C192.879 37.9453 194.056 37.9453 194.017 37.1996Z" fill="#102067"/>
<path d="M206.106 40.6932C206.302 40.9679 206.498 41.2819 206.694 41.5567C206.851 41.8314 207.205 41.9492 207.519 41.7529C207.793 41.5959 207.911 41.2034 207.715 40.9287C207.519 40.6539 207.322 40.3399 207.126 40.0652C206.969 39.7904 206.616 39.6727 206.302 39.8689C206.066 40.0259 205.949 40.4184 206.106 40.6932Z" fill="#102067"/>
<path d="M210.03 44.7352C210.541 44.068 211.012 43.4007 211.522 42.7335C211.718 42.4587 211.561 42.0662 211.326 41.9092C211.012 41.713 210.698 41.87 210.501 42.1055C209.991 42.7727 209.52 43.44 209.01 44.1072C208.814 44.382 208.971 44.7745 209.206 44.9315C209.52 45.1277 209.834 44.9707 210.03 44.7352Z" fill="#102067"/>
<path d="M211.993 45.7155C212.464 45.2445 212.974 44.7343 213.445 44.2633C213.995 43.7138 213.131 42.8895 212.621 43.439C212.15 43.91 211.64 44.4203 211.169 44.8913C210.619 45.4408 211.443 46.265 211.993 45.7155Z" fill="#102067"/>
<path d="M155.591 70.483C150.607 68.9523 146.76 64.6348 145.857 59.493C144.837 53.6055 148.055 47.404 151.666 42.9688C158.025 35.0795 167.916 30.3303 178.082 30.4088C178.827 30.4088 178.827 29.2313 178.082 29.2313C166.817 29.1528 155.827 34.844 149.39 44.107C146.054 48.8955 143.463 55.0578 144.994 60.906C146.328 66.0085 150.293 70.0905 155.317 71.6605C155.984 71.8568 156.298 70.7185 155.591 70.483Z" fill="#D47293"/>
<path d="M240.725 20.597C242.845 26.0135 246.613 30.645 251.558 33.7065C257.249 37.239 264.04 38.2595 270.673 37.9455C285.274 37.1998 299.521 29.703 314.24 32.3328C321.109 33.5888 327.742 37.0035 331.314 43.2443C331.706 43.9115 332.688 43.3228 332.335 42.6555C326.29 32.0973 313.063 29.703 301.916 31.0375C287.511 32.8038 272.675 39.9473 258.074 35.3943C250.695 33.0785 244.729 27.4658 241.903 20.283C241.589 19.5765 240.45 19.8905 240.725 20.597Z" fill="#D47293"/>
<path d="M332.06 72.1716C330.097 67.6186 330.411 62.3199 333.276 58.2379C335.867 54.5484 340.381 52.3896 344.855 53.4886C349.565 54.6269 352.43 58.7874 352.116 63.6151C351.763 68.5998 348.623 72.6034 345.208 75.9396C344.659 76.4891 345.483 77.3134 346.033 76.7639C350.036 72.8781 353.686 67.8934 353.294 62.0059C352.941 57.0604 349.526 53.1746 344.659 52.2326C339.988 51.3299 335.435 53.4494 332.609 57.1781C329.194 61.6919 328.841 67.6186 331.078 72.7604C331.353 73.4669 332.374 72.8781 332.06 72.1716Z" fill="#D47293"/>
<path d="M332.02 73.3105C335.788 76.6467 340.773 77.942 345.718 76.8822C346.464 76.7252 346.15 75.587 345.404 75.744C340.93 76.7252 336.298 75.5477 332.844 72.4862C332.295 71.976 331.471 72.8395 332.02 73.3105Z" fill="#D47293"/>
<path d="M331.157 73.6635C331.393 74.056 330.647 75.2728 330.686 75.8223C330.765 76.3325 331 76.6858 331.353 76.9998C332.766 78.295 335.396 78.923 337.202 79.4333C340.028 80.179 345.562 81.3565 346.19 77.1568C346.308 76.411 345.169 76.097 345.052 76.8428C344.463 80.7678 337.79 78.4913 335.514 77.667C334.69 77.353 333.865 77.039 333.041 76.6465C332.099 76.1755 332.021 76.1755 332.217 74.684C332.295 73.9775 332.57 73.7813 332.178 73.0748C331.785 72.4075 330.765 72.9963 331.157 73.6635Z" fill="#D47293"/>
<path d="M333.473 78.2938C333.119 79.2358 331.785 81.3161 332.491 82.3758C333.159 83.3178 335.435 83.3963 336.416 83.5926C337.515 83.8281 339.321 84.5738 340.381 83.8673C341.558 83.1216 342.108 80.8843 342.657 79.7068C342.971 79.0396 341.951 78.4116 341.637 79.1181C341.166 80.0601 340.734 81.0413 340.263 81.9833C339.635 83.2786 337.908 82.6898 336.73 82.4151C336.181 82.2973 333.983 82.1403 333.708 81.7086C333.237 80.9628 334.297 79.2358 334.572 78.5293C334.886 77.9013 333.747 77.5873 333.473 78.2938Z" fill="#D47293"/>
<path d="M321.776 48.6213C323.228 55.2545 319.421 62.3588 313.101 64.8315C312.395 65.1063 312.709 66.2445 313.415 65.9698C320.363 63.2615 324.523 55.6078 322.914 48.3073C322.757 47.5615 321.619 47.8755 321.776 48.6213Z" fill="#D47293"/>
<path d="M340.616 28.3288C341.087 33.6668 344.306 38.2591 348.819 41.0458C354.157 44.3036 360.634 44.6961 366.678 43.7148C367.424 43.5971 367.11 42.4588 366.364 42.5766C360.83 43.4401 354.864 43.1261 349.879 40.3001C345.483 37.7881 342.225 33.3921 341.754 28.3288C341.715 27.5831 340.538 27.5831 340.616 28.3288Z" fill="#D47293"/>
<path d="M338.968 75.3124C340.97 70.7201 341.166 65.6961 339.4 60.9861C339.125 60.2796 337.987 60.5936 338.261 61.3001C339.91 65.6961 339.831 70.4061 337.947 74.7236C337.673 75.3909 338.654 76.0189 338.968 75.3124Z" fill="#D47293"/>
<path d="M341.558 68.4031C342.971 67.6573 344.384 66.9116 345.797 66.2051C346.464 65.8518 345.875 64.8313 345.208 65.1846C343.795 65.9303 342.382 66.6761 340.969 67.3826C340.263 67.7358 340.891 68.7563 341.558 68.4031Z" fill="#D47293"/>
<path d="M370.563 53.9207C365.618 60.1222 366.246 69.6207 372.133 74.998C372.683 75.5082 373.546 74.684 372.958 74.1737C367.58 69.2675 366.835 60.4755 371.388 54.7842C371.898 54.1562 371.034 53.332 370.563 53.9207Z" fill="#D47293"/>
<path d="M354.903 88.3815C356.826 84.1033 360.673 81.238 365.304 80.5315C366.05 80.4138 365.736 79.2755 364.99 79.3933C360.084 80.139 355.924 83.279 353.883 87.7928C353.569 88.4993 354.589 89.088 354.903 88.3815Z" fill="#D47293"/>
<path d="M315.154 84.4167C301.652 88.1847 287.758 92.1097 276.414 100.666C271.508 104.395 267.151 108.909 264.011 114.247C261.225 118.996 259.223 125.08 260.989 130.535C264.914 142.742 282.106 139.445 291.486 138.032C306.794 135.756 321.709 131.674 336.859 128.651C345.102 127.003 353.501 125.551 361.94 125.197C369.594 124.883 377.719 125.786 383.802 130.81C384.391 131.281 385.215 130.457 384.627 129.986C375.167 122.136 361.705 123.588 350.401 125.158C335.957 127.121 321.827 130.849 307.54 133.911C300.121 135.481 292.625 136.894 285.089 137.718C279.397 138.346 272.921 139.131 267.622 136.462C261.225 133.283 260.597 125.982 262.677 119.859C264.718 113.893 268.918 108.673 273.549 104.513C285.206 93.9937 300.671 89.6369 315.468 85.5157C316.214 85.3194 315.9 84.1812 315.154 84.4167Z" fill="#D47293"/>
<path d="M405.859 116.426C396.635 128.75 387.765 141.31 379.287 154.145C378.855 154.773 379.876 155.362 380.307 154.734C388.825 141.899 397.695 129.339 406.88 117.014C407.351 116.426 406.33 115.837 405.859 116.426Z" fill="#D47293"/>
<path d="M406.957 117.172C408.802 116.818 410.647 117.957 411.196 119.723C411.432 120.429 412.57 120.155 412.334 119.409C411.589 116.975 409.116 115.562 406.643 116.033C405.897 116.19 406.211 117.329 406.957 117.172Z" fill="#D47293"/>
<path d="M379.051 154.774C378.933 157.168 378.816 159.523 378.698 161.918C378.659 162.467 379.326 162.663 379.718 162.349C380.974 161.211 382.348 160.308 383.84 159.523C384.507 159.17 383.918 158.15 383.251 158.503C381.642 159.327 380.229 160.308 378.894 161.486C379.247 161.643 379.561 161.761 379.915 161.918C380.032 159.523 380.15 157.168 380.268 154.774C380.268 154.028 379.09 154.028 379.051 154.774Z" fill="#D47293"/>
<path d="M384.192 158.972C394.083 146.334 403.543 133.421 412.57 120.154C413.002 119.526 411.981 118.937 411.55 119.565C402.601 132.753 393.181 145.627 383.368 158.148C382.897 158.698 383.721 159.561 384.192 158.972Z" fill="#D47293"/>
<path d="M401.11 124.591C403.308 124.08 405.584 125.022 406.762 126.946C407.154 127.613 408.175 126.985 407.782 126.357C406.33 123.963 403.543 122.785 400.796 123.452C400.05 123.649 400.364 124.787 401.11 124.591Z" fill="#D47293"/>
<path d="M380.19 155.566C380.621 155.448 380.935 155.252 381.289 154.977C381.642 154.702 382.152 154.035 382.466 154.624C382.78 155.134 382.819 156.115 382.937 156.704C383.094 157.45 383.29 158.156 383.447 158.902C383.604 159.648 384.743 159.334 384.586 158.588C384.311 157.489 384.075 156.39 383.801 155.291C383.644 154.624 383.565 153.799 382.976 153.368C381.799 152.543 380.857 154.113 379.836 154.388C379.13 154.624 379.444 155.762 380.19 155.566Z" fill="#D47293"/>
<path d="M335.215 180.727C334.43 178.411 334.391 175.938 335.254 173.622C336.236 170.953 338.708 168.01 341.809 168.088C344.478 168.167 345.577 170.914 347.304 172.484C348.717 173.779 350.523 174.525 352.446 174.761C360.257 175.703 368.146 166.989 366.772 159.257C366.183 155.842 363.279 152.859 359.668 153.173C355.507 153.487 352.289 157.412 350.719 160.984C347.461 168.284 350.68 177.94 359.236 179.353C370.501 181.198 377.88 170.051 386.162 164.752C386.79 164.359 386.201 163.339 385.573 163.731C378.586 168.206 373.366 175.742 365.006 177.861C360.767 178.921 356.175 178.175 353.231 174.682C350.287 171.15 349.895 166.243 351.543 162.044C353.074 158.119 357.902 152.231 362.651 155.018C367.086 157.569 365.948 163.496 363.789 167.146C361.552 170.875 357.705 173.936 353.152 173.662C350.994 173.544 348.992 172.641 347.5 171.071C346.323 169.776 345.381 168.167 343.732 167.382C340.749 166.008 337.452 168.049 335.686 170.404C333.41 173.465 332.86 177.469 334.038 181.041C334.352 181.747 335.49 181.433 335.215 180.727Z" fill="#D47293"/>
<path d="M337.58 193.588C338.444 196.571 334.48 198.73 332.399 200.025C330.201 201.399 327.846 202.537 325.452 203.518C321.135 205.324 316.621 206.619 312.068 207.797C302.255 210.348 292.364 212.742 282.787 216.118C265.439 222.28 249.896 231.935 238.042 246.144C232.587 252.699 227.955 259.999 224.462 267.771C220.733 276.131 217.711 285.708 220.772 294.775C223.52 302.782 230.585 307.295 238.827 307.963C248.758 308.787 258.021 304.234 267.127 301.055C277.685 297.404 288.871 294.578 300.097 294.068C310.262 293.558 320.664 295.246 328.985 301.408C329.613 301.879 330.162 300.819 329.573 300.387C315.051 289.633 295.23 292.184 278.823 296.345C273.838 297.601 268.893 299.131 264.065 300.937C259.277 302.703 254.567 304.626 249.621 305.804C240.633 307.963 229.564 307.217 223.991 298.817C218.103 289.908 221.047 278.564 224.972 269.537C228.505 261.412 233.175 253.798 238.867 247.007C251.073 232.367 267.166 222.672 285.103 216.549C295.544 213.017 306.298 210.74 316.896 207.679C321.841 206.266 326.747 204.539 331.261 202.027C334.205 200.378 339.935 197.513 338.719 193.274C338.483 192.528 337.345 192.842 337.58 193.588Z" fill="#D47293"/>
<path d="M351.017 298.408C356.473 319.838 365.814 340.17 378.492 358.264C378.924 358.892 379.944 358.303 379.512 357.675C366.874 339.66 357.572 319.446 352.155 298.133C351.959 297.348 350.821 297.662 351.017 298.408Z" fill="#D47293"/>
<path d="M352.077 298.998C367.424 296.957 381.868 290.442 393.525 280.276C394.114 279.766 393.25 278.941 392.701 279.452C381.279 289.382 367.07 295.819 352.077 297.86C351.331 297.899 351.331 299.077 352.077 298.998Z" fill="#D47293"/>
<path d="M393.054 280.942C401.532 296.995 410.599 313.716 425.985 324.156C426.613 324.588 427.201 323.567 426.573 323.136C411.384 312.813 402.435 296.171 394.074 280.314C393.682 279.647 392.701 280.235 393.054 280.942Z" fill="#D47293"/>
<path d="M380.141 358.422C397.764 350.846 413.621 339.542 426.534 325.373C427.045 324.824 426.22 323.96 425.71 324.549C412.875 338.679 397.097 349.904 379.552 357.44C378.846 357.715 379.474 358.736 380.141 358.422Z" fill="#D47293"/>
<path d="M403.77 298.173C411.502 294.955 418.606 290.637 425.004 285.221C424.69 285.181 424.376 285.142 424.062 285.103C435.523 301.038 447.298 317.288 463.626 328.592C464.254 329.024 464.843 328.003 464.215 327.571C448.044 316.385 436.386 300.293 425.043 284.514C424.808 284.2 424.415 284.122 424.101 284.396C417.9 289.656 410.913 293.934 403.377 297.035C402.749 297.31 403.063 298.448 403.77 298.173Z" fill="#D47293"/>
<path d="M401.1 346.53C404.672 351.907 408.754 357.52 413.503 361.916C415.427 363.721 417.389 363.8 419.587 362.387C422.531 360.503 425.239 358.108 428.026 355.95C440.036 346.726 452.047 337.502 464.057 328.278C464.646 327.807 464.057 326.787 463.469 327.258C452.714 335.54 441.92 343.782 431.166 352.064C428.458 354.144 425.789 356.185 423.08 358.265C421.903 359.168 420.725 360.149 419.509 361.013C417.35 362.544 415.858 362.583 413.896 360.66C409.421 356.264 405.575 351.161 402.121 345.941C401.689 345.313 400.669 345.902 401.1 346.53Z" fill="#D47293"/>
<path d="M362.518 306.69C368.562 304.884 374.45 302.529 380.063 299.664C380.73 299.311 380.141 298.29 379.474 298.644C373.94 301.47 368.17 303.785 362.204 305.552C361.497 305.787 361.811 306.925 362.518 306.69Z" fill="#D47293"/>
<path d="M366.246 316.817C374.45 315.6 381.554 311.126 388.423 306.73C389.051 306.337 388.462 305.317 387.834 305.709C381.044 310.066 374.057 314.501 365.932 315.679C365.187 315.797 365.501 316.935 366.246 316.817Z" fill="#D47293"/>
<path d="M373.154 333.852C378.099 332.164 382.809 329.888 387.284 327.14C387.912 326.748 387.323 325.727 386.695 326.12C382.338 328.828 377.707 331.065 372.879 332.714C372.094 332.949 372.408 334.087 373.154 333.852Z" fill="#D47293"/>
<path d="M376.294 341.073C384.615 338.208 392.465 334.283 399.766 329.338C400.394 328.906 399.805 327.885 399.177 328.317C391.994 333.184 384.223 337.07 375.98 339.935C375.234 340.171 375.548 341.309 376.294 341.073Z" fill="#D47293"/>
<path d="M394.349 275.525C393.015 264.81 391.641 254.134 390.306 243.419C390.228 242.673 389.05 242.673 389.129 243.419C390.463 254.134 391.837 264.81 393.172 275.525C393.289 276.271 394.467 276.271 394.349 275.525Z" fill="#D47293"/>
<path d="M402.199 271.484C403.023 263.634 404.829 255.98 407.576 248.601C407.851 247.894 406.713 247.58 406.438 248.287C403.651 255.784 401.846 263.555 401.021 271.484C400.943 272.229 402.12 272.229 402.199 271.484Z" fill="#D47293"/>
<path d="M409.814 275.016C416.879 267.245 424.179 259.67 431.676 252.291C432.226 251.741 431.401 250.917 430.852 251.466C423.355 258.845 416.055 266.421 408.99 274.192C408.479 274.742 409.304 275.566 409.814 275.016Z" fill="#D47293"/>
</svg>
