<svg width="55" height="43" viewBox="0 0 55 43" fill="none" xmlns="http://www.w3.org/2000/svg">
<path d="M31.8708 14.1875L27.4238 17.7344L22.9768 14.1875C22.3871 13.7172 21.5873 13.4529 20.7533 13.4529C19.9193 13.4529 19.1195 13.7172 18.5298 14.1875C17.9401 14.6578 17.6088 15.2958 17.6088 15.9609C17.6088 16.6261 17.9401 17.264 18.5298 17.7344L23.0557 21.2183L18.5298 24.8281C17.9401 25.2985 17.6088 25.9364 17.6088 26.6016C17.6088 27.2667 17.9401 27.9047 18.5298 28.375C19.1195 28.8453 19.9193 29.1096 20.7533 29.1096C21.5873 29.1096 22.3871 28.8453 22.9768 28.375L27.4238 24.7022L31.8708 28.375C32.4605 28.8453 33.2603 29.1096 34.0943 29.1096C34.9283 29.1096 35.7281 28.8453 36.3178 28.375C36.9075 27.9047 37.2388 27.2667 37.2388 26.6016C37.2388 25.9364 36.9075 25.2985 36.3178 24.8281L31.7919 21.2183L36.3178 17.7344C36.9075 17.264 37.2388 16.6261 37.2388 15.9609C37.2388 15.2958 36.9075 14.6578 36.3178 14.1875C35.7281 13.7172 34.9283 13.4529 34.0943 13.4529C33.2603 13.4529 32.4605 13.7172 31.8708 14.1875Z" fill="black"/>
</svg>
