<svg width="36" height="33" viewBox="0 0 36 33" fill="none" xmlns="http://www.w3.org/2000/svg">
<path d="M26.2914 13.75H20.449V8.25C20.449 7.52065 20.1412 6.82118 19.5933 6.30546C19.0455 5.78973 18.3025 5.5 17.5277 5.5C16.753 5.5 16.0099 5.78973 15.4621 6.30546C14.9143 6.82118 14.6065 7.52065 14.6065 8.25L14.7102 13.75H8.76401C7.98925 13.75 7.24622 14.0397 6.69838 14.5555C6.15055 15.0712 5.84277 15.7707 5.84277 16.5C5.84277 17.2293 6.15055 17.9288 6.69838 18.4445C7.24622 18.9603 7.98925 19.25 8.76401 19.25L14.7102 19.1524L14.6065 24.75C14.6065 25.4793 14.9143 26.1788 15.4621 26.6945C16.0099 27.2103 16.753 27.5 17.5277 27.5C18.3025 27.5 19.0455 27.2103 19.5933 26.6945C20.1412 26.1788 20.449 25.4793 20.449 24.75V19.1524L26.2914 19.25C27.0662 19.25 27.8092 18.9603 28.3571 18.4445C28.9049 17.9288 29.2127 17.2293 29.2127 16.5C29.2127 15.7707 28.9049 15.0712 28.3571 14.5555C27.8092 14.0397 27.0662 13.75 26.2914 13.75Z" fill="black"/>
</svg>
