<svg width="72" height="73" viewBox="0 0 72 73" fill="none" xmlns="http://www.w3.org/2000/svg">
<g filter="url(#filter0_d_480_168)">
<rect x="9" y="9" width="54" height="55" rx="10" fill="white"/>
<path d="M40.45 34.3201C40.3269 34.3676 40.2145 34.439 40.1191 34.5302C40.0237 34.6214 39.9474 34.7306 39.8944 34.8514C39.8414 34.9723 39.8128 35.1024 39.8104 35.2343C39.8079 35.3662 39.8316 35.4973 39.88 35.6201C40.2095 36.4749 40.2356 37.417 39.9538 38.2888C39.6721 39.1605 39.0996 39.9091 38.3322 40.4095C37.5647 40.9098 36.6487 41.1315 35.7374 41.0376C34.8261 40.9436 33.9746 40.5396 33.3254 39.8932C32.6762 39.2468 32.2685 38.3971 32.1706 37.4862C32.0727 36.5753 32.2904 35.6584 32.7874 34.8887C33.2844 34.1191 34.0305 33.5434 34.9011 33.2579C35.7716 32.9723 36.7138 32.9943 37.57 33.3201C37.818 33.4142 38.0932 33.406 38.3352 33.2973C38.5771 33.1885 38.7659 32.9881 38.86 32.7401C38.9542 32.4921 38.946 32.2169 38.8372 31.975C38.7284 31.733 38.528 31.5442 38.28 31.4501C36.9972 30.9648 35.5868 30.9337 34.2838 31.362C32.9808 31.7903 31.8638 32.6521 31.119 33.8038C30.3742 34.9555 30.0464 36.3277 30.1904 37.6917C30.3343 39.0557 30.9412 40.3292 31.91 41.3001C33.035 42.4237 34.56 43.0548 36.15 43.0548C37.74 43.0548 39.265 42.4237 40.39 41.3001C41.2138 40.4785 41.7809 39.4352 42.0223 38.2971C42.2638 37.1591 42.1692 35.9753 41.75 34.8901C41.7025 34.767 41.6311 34.6545 41.5399 34.5592C41.4487 34.4638 41.3395 34.3874 41.2187 34.3344C41.0979 34.2814 40.9677 34.2529 40.8358 34.2504C40.7039 34.248 40.5728 34.2716 40.45 34.3201Z" fill="#295592"/>
<path d="M43 31C43.5523 31 44 30.5523 44 30C44 29.4477 43.5523 29 43 29C42.4477 29 42 29.4477 42 30C42 30.5523 42.4477 31 43 31Z" fill="#295592"/>
<path d="M48 30.0002C48.0003 28.6913 47.4872 27.4344 46.5711 26.4996C45.6549 25.5647 44.4087 25.0264 43.1 25.0002C38.4099 24.5696 33.6901 24.5696 29 25.0002C27.6877 25 26.4279 25.5158 25.4924 26.4363C24.557 27.3567 24.021 28.608 24 29.9202C23.64 34.6066 23.64 39.3138 24 44.0002C23.9997 45.3091 24.5128 46.566 25.4289 47.5008C26.3451 48.4357 27.5913 48.974 28.9 49.0002C31.26 49.2202 33.63 49.3402 36 49.3402C38.37 49.3402 40.71 49.2302 43.05 49.0002C44.3537 48.9873 45.6007 48.4658 46.5254 47.5467C47.4501 46.6276 47.9792 45.3838 48 44.0802C48.38 39.3946 48.38 34.6858 48 30.0002ZM46 44.0002C46 44.7959 45.6839 45.5589 45.1213 46.1215C44.5587 46.6841 43.7956 47.0002 43 47.0002H42.9C38.2776 47.4502 33.6224 47.4502 29 47.0002C28.5992 47.0003 28.2025 46.9202 27.8332 46.7644C27.4639 46.6087 27.1295 46.3805 26.8499 46.0934C26.5702 45.8063 26.351 45.4661 26.205 45.0928C26.059 44.7196 25.9893 44.3209 26 43.9202C25.65 39.2868 25.65 34.6336 26 30.0002C25.9998 29.5986 26.0803 29.2009 26.2367 28.831C26.393 28.461 26.6221 28.1262 26.9103 27.8464C27.1984 27.5666 27.5399 27.3476 27.9143 27.2022C28.2887 27.0568 28.6885 26.9882 29.09 27.0002C31.3833 26.7935 33.6833 26.6869 35.99 26.6802C38.2967 26.6735 40.6333 26.7802 43 27.0002C43.4008 27.0001 43.7975 27.0802 44.1668 27.236C44.5361 27.3917 44.8705 27.6199 45.1501 27.907C45.4298 28.1941 45.649 28.5343 45.795 28.9076C45.941 29.2808 46.0107 29.6796 46 30.0802C46.38 34.7124 46.38 39.368 46 44.0002Z" fill="#295592"/>
</g>
<defs>
<filter id="filter0_d_480_168" x="0" y="0" width="72" height="73" filterUnits="userSpaceOnUse" color-interpolation-filters="sRGB">
<feFlood flood-opacity="0" result="BackgroundImageFix"/>
<feColorMatrix in="SourceAlpha" type="matrix" values="0 0 0 0 0 0 0 0 0 0 0 0 0 0 0 0 0 0 127 0" result="hardAlpha"/>
<feMorphology radius="5" operator="erode" in="SourceAlpha" result="effect1_dropShadow_480_168"/>
<feOffset/>
<feGaussianBlur stdDeviation="7"/>
<feComposite in2="hardAlpha" operator="out"/>
<feColorMatrix type="matrix" values="0 0 0 0 0 0 0 0 0 0 0 0 0 0 0 0 0 0 0.25 0"/>
<feBlend mode="normal" in2="BackgroundImageFix" result="effect1_dropShadow_480_168"/>
<feBlend mode="normal" in="SourceGraphic" in2="effect1_dropShadow_480_168" result="shape"/>
</filter>
</defs>
</svg>
