<svg width="40" height="41" viewBox="0 0 40 41" fill="none" xmlns="http://www.w3.org/2000/svg">
<g clip-path="url(#clip0_510_2299)">
<path d="M9.99967 30.4685C9.99967 31.3851 10.7497 32.1351 11.6663 32.1351H13.333V37.9685C13.333 39.3518 14.4497 40.4685 15.833 40.4685C17.2163 40.4685 18.333 39.3518 18.333 37.9685V32.1351H21.6663V37.9685C21.6663 39.3518 22.783 40.4685 24.1663 40.4685C25.5497 40.4685 26.6663 39.3518 26.6663 37.9685V32.1351H28.333C29.2497 32.1351 29.9997 31.3851 29.9997 30.4685V13.8018H9.99967V30.4685ZM5.83301 13.8018C4.44967 13.8018 3.33301 14.9185 3.33301 16.3018V27.9685C3.33301 29.3518 4.44967 30.4685 5.83301 30.4685C7.21634 30.4685 8.33301 29.3518 8.33301 27.9685V16.3018C8.33301 14.9185 7.21634 13.8018 5.83301 13.8018ZM34.1663 13.8018C32.783 13.8018 31.6663 14.9185 31.6663 16.3018V27.9685C31.6663 29.3518 32.783 30.4685 34.1663 30.4685C35.5497 30.4685 36.6663 29.3518 36.6663 27.9685V16.3018C36.6663 14.9185 35.5497 13.8018 34.1663 13.8018ZM25.883 4.06848L28.058 1.89348C28.1352 1.81633 28.1964 1.72474 28.2381 1.62393C28.2799 1.52313 28.3014 1.41509 28.3014 1.30598C28.3014 1.19687 28.2799 1.08883 28.2381 0.988028C28.1964 0.887225 28.1352 0.795632 28.058 0.718481C27.9809 0.641329 27.8893 0.580129 27.7885 0.538375C27.6877 0.496621 27.5796 0.47513 27.4705 0.47513C27.3614 0.47513 27.2534 0.496621 27.1526 0.538375C27.0518 0.580129 26.9602 0.641329 26.883 0.718481L24.4163 3.17681C23.0442 2.49346 21.5325 2.13694 19.9997 2.13515C18.3997 2.13515 16.8997 2.51848 15.558 3.18515L13.083 0.710147C12.9272 0.554333 12.7159 0.466797 12.4955 0.466797C12.2752 0.466797 12.0638 0.554333 11.908 0.710147C11.7522 0.865962 11.6647 1.07729 11.6647 1.29765C11.6647 1.518 11.7522 1.72933 11.908 1.88515L14.0913 4.06848C11.6163 5.89348 9.99967 8.82681 9.99967 12.1351H29.9997C29.9997 8.81848 28.3747 5.88515 25.883 4.06848ZM16.6663 8.80182H14.9997V7.13515H16.6663V8.80182ZM24.9997 8.80182H23.333V7.13515H24.9997V8.80182Z" fill="#183153"/>
</g>
<defs>
<clipPath id="clip0_510_2299">
<rect width="40" height="40" fill="white" transform="translate(0 0.46875)"/>
</clipPath>
</defs>
</svg>
