<svg width="40" height="40" viewBox="0 0 40 40" fill="none" xmlns="http://www.w3.org/2000/svg">
<g clip-path="url(#clip0_845_2309)">
<path d="M10.0002 29.9997C10.0002 30.9164 10.7502 31.6664 11.6668 31.6664H13.3335V37.4997C13.3335 38.8831 14.4502 39.9997 15.8335 39.9997C17.2168 39.9997 18.3335 38.8831 18.3335 37.4997V31.6664H21.6668V37.4997C21.6668 38.8831 22.7835 39.9997 24.1668 39.9997C25.5502 39.9997 26.6668 38.8831 26.6668 37.4997V31.6664H28.3335C29.2502 31.6664 30.0002 30.9164 30.0002 29.9997V13.3331H10.0002V29.9997ZM5.8335 13.3331C4.45016 13.3331 3.3335 14.4497 3.3335 15.8331V27.4997C3.3335 28.8831 4.45016 29.9997 5.8335 29.9997C7.21683 29.9997 8.3335 28.8831 8.3335 27.4997V15.8331C8.3335 14.4497 7.21683 13.3331 5.8335 13.3331ZM34.1668 13.3331C32.7835 13.3331 31.6668 14.4497 31.6668 15.8331V27.4997C31.6668 28.8831 32.7835 29.9997 34.1668 29.9997C35.5502 29.9997 36.6668 28.8831 36.6668 27.4997V15.8331C36.6668 14.4497 35.5502 13.3331 34.1668 13.3331ZM25.8835 3.59973L28.0585 1.42473C28.1356 1.34758 28.1968 1.25599 28.2386 1.15518C28.2804 1.05438 28.3018 0.94634 28.3018 0.837231C28.3018 0.728122 28.2804 0.620081 28.2386 0.519278C28.1968 0.418475 28.1356 0.326882 28.0585 0.249731C27.9813 0.172579 27.8898 0.111379 27.7889 0.0696249C27.6881 0.0278708 27.5801 0.00638021 27.471 0.00638021C27.3619 0.00638021 27.2538 0.0278708 27.153 0.0696249C27.0522 0.111379 26.9606 0.172579 26.8835 0.249731L24.4168 2.70806C23.0447 2.02471 21.533 1.66819 20.0002 1.6664C18.4002 1.6664 16.9002 2.04973 15.5585 2.7164L13.0835 0.241397C12.9277 0.0855827 12.7164 -0.00195312 12.496 -0.00195312C12.2756 -0.00195312 12.0643 0.0855827 11.9085 0.241397C11.7527 0.397212 11.6651 0.608542 11.6651 0.828897C11.6651 1.04925 11.7527 1.26058 11.9085 1.4164L14.0918 3.59973C11.6168 5.42473 10.0002 8.35806 10.0002 11.6664H30.0002C30.0002 8.34973 28.3752 5.4164 25.8835 3.59973ZM16.6668 8.33307H15.0002V6.6664H16.6668V8.33307ZM25.0002 8.33307H23.3335V6.6664H25.0002V8.33307Z" fill="#183153"/>
</g>
<defs>
<clipPath id="clip0_845_2309">
<rect width="40" height="40" fill="white"/>
</clipPath>
</defs>
</svg>
