<svg width="41" height="40" viewBox="0 0 41 40" fill="none" xmlns="http://www.w3.org/2000/svg">
<g clip-path="url(#clip0_845_2318)">
<path d="M38.2511 20.4889C38.6592 19.6726 38.9041 18.7746 38.9041 17.8766C38.9041 15.8358 37.7613 13.8766 35.9654 12.897C35.9654 12.7338 35.9654 12.6521 35.9654 12.4889C35.9654 10.0399 34.0878 7.99908 31.6388 7.75419V7.67255C31.6388 4.89704 29.3531 2.61133 26.5776 2.61133C23.8021 2.61133 21.5164 4.89704 21.5164 7.67255V31.7542C21.5164 34.9379 24.047 37.4685 27.2307 37.4685C29.3531 37.4685 31.2307 36.3256 32.2103 34.5297C32.4552 34.6113 32.7001 34.6113 32.945 34.6113C34.7409 34.6113 36.1286 33.2236 36.2103 31.4277C38.6592 30.4481 40.3735 28.0807 40.3735 25.3868C40.4552 23.5093 39.6388 21.7134 38.2511 20.4889ZM25.0266 8.97868C25.0266 8.08072 25.7613 7.26439 26.7409 7.26439C27.6388 7.26439 28.4552 7.99908 28.4552 8.97868C28.4552 9.71337 28.047 10.2848 27.3939 10.5297V12.8154C27.8021 12.9787 28.1286 13.3052 28.3735 13.7134H30.7409C30.9858 13.1419 31.5572 12.6521 32.2919 12.6521C33.1899 12.6521 34.0062 13.3868 34.0062 14.3664C34.0062 15.2644 33.2715 16.0807 32.2919 16.0807C31.5572 16.0807 30.9858 15.6726 30.7409 15.0195H28.3735C28.1286 15.6726 27.5572 16.0807 26.8225 16.0807C25.9245 16.0807 25.1082 15.346 25.1082 14.3664C25.1082 13.6317 25.5164 13.0603 26.1694 12.8154V10.5297C25.4347 10.2848 25.0266 9.63174 25.0266 8.97868ZM27.7205 33.0603C27.4756 33.4685 27.0674 33.7134 26.6592 33.795C26.5776 33.795 26.4143 33.795 26.3327 33.795C26.0062 33.795 25.6796 33.7134 25.3531 33.4685C24.945 33.2236 24.7001 32.8154 24.6184 32.4072C24.5368 31.9991 24.6184 31.5093 24.8633 31.1828C25.0266 31.0195 25.1899 30.8562 25.3531 30.693L24.945 28.4889C24.7001 28.4072 24.5368 28.4072 24.2919 28.244C23.8837 27.9991 23.6388 27.5909 23.5572 27.1828C23.4756 26.7746 23.5572 26.2848 23.8021 25.9583C24.047 25.5501 24.4552 25.3052 24.8633 25.2236C25.2715 25.1419 25.7613 25.2236 26.0878 25.4685C26.496 25.7134 26.7409 26.1215 26.8225 26.5297C26.9858 27.1828 26.6592 27.9174 26.0878 28.244L26.496 30.4481C26.7409 30.5297 26.9041 30.6113 27.149 30.693C27.4756 30.9379 27.8021 31.346 27.8837 31.7542C28.047 32.244 27.9654 32.6521 27.7205 33.0603ZM26.9041 20.8154C26.7409 20.897 26.5776 20.897 26.4143 20.897C26.0062 20.897 25.5164 20.7338 25.1899 20.4072C24.5368 19.7542 24.5368 18.693 25.1899 18.0399C25.5164 17.7134 25.9245 17.5501 26.3327 17.5501C26.7409 17.5501 27.2307 17.7134 27.4756 18.0399C28.047 18.5297 28.1286 19.346 27.8021 19.9991L29.598 23.1011C29.7613 23.0195 29.8429 23.0195 30.0062 23.0195L30.5776 21.2236C30.5776 21.2236 30.496 21.2236 30.496 21.1419C30.1694 20.8154 30.0062 20.4072 30.0062 19.9174C30.0062 19.5093 30.1694 19.0195 30.496 18.693C31.149 18.0399 32.2103 18.0399 32.8633 18.693C33.1899 19.0195 33.3531 19.4277 33.3531 19.9174C33.3531 20.4072 33.1899 20.8154 32.8633 21.1419C32.5368 21.4685 32.1286 21.6317 31.7205 21.6317L31.149 23.346C31.2307 23.346 31.2307 23.4277 31.2307 23.4277C31.8837 24.0807 31.8837 25.1419 31.2307 25.795C30.9041 26.1215 30.496 26.2848 30.0062 26.2848C29.598 26.2848 29.1082 26.1215 28.7817 25.795C28.4552 25.4685 28.2919 25.0603 28.2919 24.5705C28.2919 24.3256 28.3735 23.9991 28.4552 23.8358L26.9041 20.8154ZM36.945 28.0807C36.7817 28.4889 36.4552 28.8154 35.9654 28.9787C35.8021 29.0603 35.5572 29.0603 35.3939 29.0603C35.149 29.0603 34.9041 28.9787 34.6592 28.897C34.4143 28.8154 34.2511 28.6521 34.0878 28.4889L31.9654 29.2236C31.9654 29.8766 31.5572 30.5297 30.9041 30.7746C30.7409 30.8562 30.496 30.8562 30.3327 30.8562C30.0878 30.8562 29.8429 30.7746 29.598 30.693C29.1899 30.5297 28.8633 30.2032 28.7001 29.7134C28.3735 28.8154 28.8633 27.8358 29.6796 27.5909C30.0878 27.4277 30.5776 27.4277 30.9858 27.6726C31.2307 27.7542 31.3939 27.9175 31.5572 28.0807L33.6796 27.346C33.6796 26.693 34.0878 26.0399 34.7409 25.795C35.149 25.6317 35.6388 25.6317 36.047 25.8766C36.4552 26.0399 36.7817 26.3664 36.945 26.8562C37.1082 27.2644 37.1082 27.6726 36.945 28.0807ZM15.0674 2.61133C12.2919 2.61133 10.0062 4.89704 10.0062 7.67255C10.0062 7.75419 10.0062 7.75419 10.0062 7.83582C7.63883 7.99908 5.76128 10.0399 5.76128 12.5705C5.76128 12.7338 5.76128 12.8154 5.76128 12.9787C3.96536 13.9583 2.8225 15.8358 2.8225 17.9583C2.8225 18.8562 3.0674 19.7542 3.47557 20.5705C2.08781 21.795 1.27148 23.5909 1.27148 25.3868C1.27148 28.0807 2.98577 30.4481 5.43475 31.4277C5.51638 33.2236 6.90414 34.6113 8.70006 34.6113C8.94495 34.6113 9.18985 34.6113 9.43475 34.5297C10.4143 36.3256 12.3735 37.4685 14.4143 37.4685C17.598 37.4685 20.1286 34.9379 20.1286 31.7542V7.67255C20.1286 4.81541 17.9245 2.61133 15.0674 2.61133ZM7.8021 18.8562C7.8021 18.5297 8.047 18.2032 8.45516 18.2032C8.78169 18.2032 9.10822 18.4481 9.10822 18.8562C9.10822 20.5705 10.496 21.8766 12.1286 21.8766C12.4552 21.8766 12.7817 22.1215 12.7817 22.5297C12.7817 22.8562 12.5368 23.1828 12.1286 23.1828C9.67965 23.1828 7.8021 21.2236 7.8021 18.8562ZM16.2103 32.9787C15.8837 32.9787 15.5572 32.7338 15.5572 32.3256C15.5572 30.6113 14.1694 29.3052 12.5368 29.3052C12.2103 29.3052 11.8837 29.0603 11.8837 28.6521C11.8837 28.3256 12.1286 27.9991 12.5368 27.9991C14.9041 27.9991 16.8633 29.9583 16.8633 32.244C16.7817 32.6521 16.5368 32.9787 16.2103 32.9787ZM12.7001 15.6726C12.3735 15.6726 12.047 15.4277 12.047 15.0195C12.047 14.693 12.2919 14.3664 12.7001 14.3664C14.4143 14.3664 15.7205 12.9787 15.7205 11.346C15.7205 11.0195 15.9654 10.693 16.3735 10.693C16.7001 10.693 17.0266 10.9379 17.0266 11.346C17.0266 13.795 15.0674 15.6726 12.7001 15.6726Z" fill="#183153"/>
</g>
<defs>
<clipPath id="clip0_845_2318">
<rect width="40" height="40" fill="white" transform="translate(0.863281)"/>
</clipPath>
</defs>
</svg>
