<svg width="41" height="41" viewBox="0 0 41 41" fill="none" xmlns="http://www.w3.org/2000/svg">
<g clip-path="url(#clip0_565_109)">
<path d="M37.7208 20.9576C38.129 20.1413 38.3739 19.2433 38.3739 18.3454C38.3739 16.3046 37.231 14.3454 35.4351 13.3658C35.4351 13.2025 35.4351 13.1209 35.4351 12.9576C35.4351 10.5087 33.5575 8.46783 31.1086 8.22294V8.1413C31.1086 5.36579 28.8228 3.08008 26.0473 3.08008C23.2718 3.08008 20.9861 5.36579 20.9861 8.1413V32.2229C20.9861 35.4066 23.5167 37.9372 26.7004 37.9372C28.8228 37.9372 30.7004 36.7944 31.68 34.9984C31.9249 35.0801 32.1698 35.0801 32.4147 35.0801C34.2106 35.0801 35.5984 33.6923 35.68 31.8964C38.129 30.9168 39.8433 28.5495 39.8433 25.8556C39.9249 23.978 39.1086 22.1821 37.7208 20.9576ZM24.4963 9.44743C24.4963 8.54947 25.231 7.73314 26.2106 7.73314C27.1086 7.73314 27.9249 8.46783 27.9249 9.44743C27.9249 10.1821 27.5167 10.7535 26.8637 10.9984V13.2842C27.2718 13.4474 27.5984 13.774 27.8433 14.1821H30.2106C30.4555 13.6107 31.0269 13.1209 31.7616 13.1209C32.6596 13.1209 33.4759 13.8556 33.4759 14.8352C33.4759 15.7331 32.7412 16.5495 31.7616 16.5495C31.0269 16.5495 30.4555 16.1413 30.2106 15.4882H27.8433C27.5984 16.1413 27.0269 16.5495 26.2922 16.5495C25.3943 16.5495 24.5779 15.8148 24.5779 14.8352C24.5779 14.1005 24.9861 13.5291 25.6392 13.2842V10.9984C24.9045 10.7535 24.4963 10.1005 24.4963 9.44743ZM27.1902 33.5291C26.9453 33.9372 26.5371 34.1821 26.129 34.2638C26.0473 34.2638 25.8841 34.2638 25.8024 34.2638C25.4759 34.2638 25.1494 34.1821 24.8228 33.9372C24.4147 33.6923 24.1698 33.2842 24.0882 32.876C24.0065 32.4678 24.0882 31.978 24.333 31.6515C24.4963 31.4882 24.6596 31.325 24.8228 31.1617L24.4147 28.9576C24.1698 28.876 24.0065 28.876 23.7616 28.7127C23.3535 28.4678 23.1086 28.0597 23.0269 27.6515C22.9453 27.2433 23.0269 26.7535 23.2718 26.427C23.5167 26.0189 23.9249 25.774 24.333 25.6923C24.7412 25.6107 25.231 25.6923 25.5575 25.9372C25.9657 26.1821 26.2106 26.5903 26.2922 26.9984C26.4555 27.6515 26.129 28.3862 25.5575 28.7127L25.9657 30.9168C26.2106 30.9984 26.3739 31.0801 26.6188 31.1617C26.9453 31.4066 27.2718 31.8148 27.3535 32.2229C27.5167 32.7127 27.4351 33.1209 27.1902 33.5291ZM26.3739 21.2842C26.2106 21.3658 26.0473 21.3658 25.8841 21.3658C25.4759 21.3658 24.9861 21.2025 24.6596 20.876C24.0065 20.2229 24.0065 19.1617 24.6596 18.5086C24.9861 18.1821 25.3943 18.0189 25.8024 18.0189C26.2106 18.0189 26.7004 18.1821 26.9453 18.5086C27.5167 18.9984 27.5984 19.8148 27.2718 20.4678L29.0677 23.5699C29.231 23.4882 29.3126 23.4882 29.4759 23.4882L30.0473 21.6923C30.0473 21.6923 29.9657 21.6923 29.9657 21.6107C29.6392 21.2842 29.4759 20.876 29.4759 20.3862C29.4759 19.978 29.6392 19.4882 29.9657 19.1617C30.6188 18.5086 31.68 18.5086 32.333 19.1617C32.6596 19.4882 32.8228 19.8964 32.8228 20.3862C32.8228 20.876 32.6596 21.2842 32.333 21.6107C32.0065 21.9372 31.5984 22.1005 31.1902 22.1005L30.6188 23.8148C30.7004 23.8148 30.7004 23.8964 30.7004 23.8964C31.3535 24.5495 31.3535 25.6107 30.7004 26.2638C30.3739 26.5903 29.9657 26.7535 29.4759 26.7535C29.0677 26.7535 28.5779 26.5903 28.2514 26.2638C27.9249 25.9372 27.7616 25.5291 27.7616 25.0393C27.7616 24.7944 27.8433 24.4678 27.9249 24.3046L26.3739 21.2842ZM36.4147 28.5495C36.2514 28.9576 35.9249 29.2842 35.4351 29.4474C35.2718 29.5291 35.0269 29.5291 34.8637 29.5291C34.6188 29.5291 34.3739 29.4474 34.129 29.3658C33.8841 29.2842 33.7208 29.1209 33.5575 28.9576L31.4351 29.6923C31.4351 30.3454 31.0269 30.9984 30.3739 31.2433C30.2106 31.325 29.9657 31.325 29.8024 31.325C29.5575 31.325 29.3126 31.2433 29.0677 31.1617C28.6596 30.9984 28.333 30.6719 28.1698 30.1821C27.8433 29.2842 28.333 28.3046 29.1494 28.0597C29.5575 27.8964 30.0473 27.8964 30.4555 28.1413C30.7004 28.2229 30.8637 28.3862 31.0269 28.5495L33.1494 27.8148C33.1494 27.1617 33.5575 26.5086 34.2106 26.2638C34.6188 26.1005 35.1086 26.1005 35.5167 26.3454C35.9249 26.5086 36.2514 26.8352 36.4147 27.325C36.5779 27.7331 36.5779 28.1413 36.4147 28.5495ZM14.5371 3.08008C11.7616 3.08008 9.47591 5.36579 9.47591 8.1413C9.47591 8.22294 9.47591 8.22294 9.47591 8.30457C7.10856 8.46783 5.23101 10.5086 5.23101 13.0393C5.23101 13.2025 5.23101 13.2842 5.23101 13.4474C3.43509 14.427 2.29223 16.3046 2.29223 18.427C2.29223 19.325 2.53713 20.2229 2.94529 21.0393C1.55754 22.2638 0.741211 24.0597 0.741211 25.8556C0.741211 28.5495 2.4555 30.9168 4.90448 31.8964C4.98611 33.6923 6.37386 35.0801 8.16978 35.0801C8.41468 35.0801 8.65958 35.0801 8.90448 34.9984C9.88407 36.7944 11.8433 37.9372 13.8841 37.9372C17.0677 37.9372 19.5984 35.4066 19.5984 32.2229V8.1413C19.5984 5.28416 17.3943 3.08008 14.5371 3.08008ZM7.27182 19.325C7.27182 18.9984 7.51672 18.6719 7.92488 18.6719C8.25142 18.6719 8.57795 18.9168 8.57795 19.325C8.57795 21.0393 9.9657 22.3454 11.5984 22.3454C11.9249 22.3454 12.2514 22.5903 12.2514 22.9984C12.2514 23.325 12.0065 23.6515 11.5984 23.6515C9.14937 23.6515 7.27182 21.6923 7.27182 19.325ZM15.68 33.4474C15.3535 33.4474 15.0269 33.2025 15.0269 32.7944C15.0269 31.0801 13.6392 29.774 12.0065 29.774C11.68 29.774 11.3535 29.5291 11.3535 29.1209C11.3535 28.7944 11.5984 28.4678 12.0065 28.4678C14.3739 28.4678 16.333 30.427 16.333 32.7127C16.2514 33.1209 16.0065 33.4474 15.68 33.4474ZM12.1698 16.1413C11.8433 16.1413 11.5167 15.8964 11.5167 15.4882C11.5167 15.1617 11.7616 14.8352 12.1698 14.8352C13.8841 14.8352 15.1902 13.4474 15.1902 11.8148C15.1902 11.4882 15.4351 11.1617 15.8433 11.1617C16.1698 11.1617 16.4963 11.4066 16.4963 11.8148C16.4963 14.2638 14.5371 16.1413 12.1698 16.1413Z" fill="#183153"/>
</g>
<defs>
<clipPath id="clip0_565_109">
<rect width="40" height="40" fill="white" transform="translate(0.333008 0.46875)"/>
</clipPath>
</defs>
</svg>
