<svg width="73" height="72" viewBox="0 0 73 72" fill="none" xmlns="http://www.w3.org/2000/svg">
<g filter="url(#filter0_d_878_203)">
<g clip-path="url(#clip0_878_203)">
<rect x="9.97168" y="9.53125" width="53.1776" height="53.1776" rx="10" fill="white"/>
<path d="M43.9557 32.2318C43.7511 32.3094 43.5642 32.4259 43.4057 32.5747C43.2473 32.7235 43.1203 32.9016 43.0323 33.0987C42.9442 33.2959 42.8968 33.5082 42.8927 33.7235C42.8886 33.9387 42.9279 34.1527 43.0084 34.3529C43.556 35.7477 43.5993 37.2847 43.1311 38.7071C42.6629 40.1294 41.7116 41.3509 40.4362 42.1672C39.1608 42.9836 37.6386 43.3453 36.1242 43.192C34.6097 43.0387 33.1948 42.3796 32.1159 41.3249C31.037 40.2702 30.3596 38.8839 30.1969 37.3976C30.0341 35.9114 30.396 34.4154 31.2219 33.1596C32.0478 31.9039 33.2877 30.9646 34.7344 30.4987C36.181 30.0329 37.7467 30.0687 39.1697 30.6003C39.5818 30.7539 40.0391 30.7405 40.4412 30.563C40.8432 30.3855 41.1569 30.0585 41.3134 29.6539C41.4699 29.2493 41.4562 28.8003 41.2755 28.4056C41.0947 28.0109 40.7617 27.7028 40.3496 27.5492C38.2177 26.7574 35.8739 26.7067 33.7085 27.4055C31.5432 28.1042 29.6871 29.5103 28.4493 31.3894C27.2116 33.2686 26.667 35.5074 26.9061 37.7329C27.1453 39.9584 28.1539 42.0362 29.7639 43.6203C31.6334 45.4536 34.1677 46.4833 36.8099 46.4833C39.4522 46.4833 41.9864 45.4536 43.856 43.6203C45.2248 42.2799 46.1673 40.5776 46.5685 38.7207C46.9698 36.8639 46.8126 34.9326 46.116 33.1618C46.037 32.961 45.9184 32.7775 45.7668 32.6219C45.6153 32.4663 45.4339 32.3417 45.2331 32.2552C45.0322 32.1688 44.816 32.1222 44.5967 32.1182C44.3775 32.1142 44.1596 32.1528 43.9557 32.2318Z" fill="#295592"/>
<path d="M48.1935 26.814C49.1113 26.814 49.8553 26.0835 49.8553 25.1824C49.8553 24.2813 49.1113 23.5508 48.1935 23.5508C47.2758 23.5508 46.5317 24.2813 46.5317 25.1824C46.5317 26.0835 47.2758 26.814 48.1935 26.814Z" fill="#295592"/>
<path d="M56.5024 25.1829C56.5028 23.0473 55.6502 20.9966 54.1278 19.4713C52.6053 17.946 50.5343 17.0677 48.3595 17.025C40.5655 16.3224 32.7222 16.3224 24.9281 17.025C22.7473 17.0247 20.6538 17.8663 19.0993 19.3681C17.5448 20.8698 16.654 22.9115 16.6191 25.0524C16.0208 32.6987 16.0208 40.3788 16.6191 48.0251C16.6187 50.1608 17.4713 52.2114 18.9937 53.7367C20.5162 55.262 22.5872 56.1404 24.762 56.1831C28.6838 56.542 32.6223 56.7378 36.5607 56.7378C40.4992 56.7378 44.3878 56.5583 48.2764 56.1831C50.4429 56.1621 52.5153 55.3111 54.0519 53.8116C55.5885 52.312 56.4678 50.2825 56.5024 48.1557C57.1339 40.5106 57.1339 32.8279 56.5024 25.1829ZM53.1788 48.0251C53.1788 49.3233 52.6535 50.5683 51.7186 51.4862C50.7836 52.4042 49.5156 52.9199 48.1934 52.9199H48.0272C40.3456 53.6541 32.6097 53.6541 24.9281 52.9199C24.2621 52.9201 23.6028 52.7893 22.9891 52.5352C22.3754 52.2811 21.8198 51.9088 21.3551 51.4404C20.8904 50.972 20.5259 50.4169 20.2834 49.8079C20.0408 49.1988 19.925 48.5483 19.9427 47.8946C19.3611 40.3348 19.3611 32.7427 19.9427 25.1829C19.9424 24.5276 20.0762 23.8789 20.336 23.2752C20.5958 22.6716 20.9765 22.1253 21.4554 21.6688C21.9343 21.2123 22.5017 20.8549 23.1239 20.6177C23.7461 20.3806 24.4105 20.2685 25.0777 20.2882C28.8888 19.951 32.7109 19.7769 36.5441 19.766C40.3773 19.7552 44.2604 19.9292 48.1934 20.2882C48.8594 20.2879 49.5187 20.4187 50.1324 20.6728C50.7461 20.9269 51.3017 21.2992 51.7664 21.7676C52.2311 22.2361 52.5955 22.7912 52.8381 23.4002C53.0807 24.0092 53.1965 24.6598 53.1788 25.3134C53.8102 32.8713 53.8102 40.4673 53.1788 48.0251Z" fill="#295592"/>
</g>
</g>
<defs>
<filter id="filter0_d_878_203" x="0.97168" y="0.53125" width="71.1777" height="71.1777" filterUnits="userSpaceOnUse" color-interpolation-filters="sRGB">
<feFlood flood-opacity="0" result="BackgroundImageFix"/>
<feColorMatrix in="SourceAlpha" type="matrix" values="0 0 0 0 0 0 0 0 0 0 0 0 0 0 0 0 0 0 127 0" result="hardAlpha"/>
<feMorphology radius="5" operator="erode" in="SourceAlpha" result="effect1_dropShadow_878_203"/>
<feOffset/>
<feGaussianBlur stdDeviation="7"/>
<feComposite in2="hardAlpha" operator="out"/>
<feColorMatrix type="matrix" values="0 0 0 0 0 0 0 0 0 0 0 0 0 0 0 0 0 0 0.25 0"/>
<feBlend mode="normal" in2="BackgroundImageFix" result="effect1_dropShadow_878_203"/>
<feBlend mode="normal" in="SourceGraphic" in2="effect1_dropShadow_878_203" result="shape"/>
</filter>
<clipPath id="clip0_878_203">
<rect x="9.97168" y="9.53125" width="53.1776" height="53.1776" rx="10" fill="white"/>
</clipPath>
</defs>
</svg>
