<svg width="94" height="94" viewBox="0 0 94 94" fill="none" xmlns="http://www.w3.org/2000/svg">
<path d="M47.0516 92C71.933 92 92.1033 71.8528 92.1033 47C92.1033 22.1472 71.933 2 47.0516 2C22.1703 2 2 22.1472 2 47C2 71.8528 22.1703 92 47.0516 92Z" fill="white" stroke="#183153" stroke-width="2.73816" stroke-miterlimit="10"/>
<path d="M47 27.707C39.27 27.707 33 33.6768 33 41.0368C33 51.0341 47 65.792 47 65.792C47 65.792 61 51.0341 61 41.0368C61 33.6768 54.73 27.707 47 27.707ZM47 45.7974C44.24 45.7974 42 43.6646 42 41.0368C42 38.4089 44.24 36.2761 47 36.2761C49.76 36.2761 52 38.4089 52 41.0368C52 43.6646 49.76 45.7974 47 45.7974Z" fill="#183153"/>
</svg>
